<svg width="550" height="557" viewBox="0 0 550 557" fill="none" xmlns="http://www.w3.org/2000/svg">
<g clip-path="url(#clip0)">
<g opacity="0.1">
<path opacity="0.1" d="M250.521 400.722C245.594 403.572 245.57 408.198 250.48 411.048L312.671 447.197C317.569 450.04 325.557 450.04 330.484 447.197L393.088 411.053C398.027 408.198 398.05 403.572 393.158 400.722L330.961 364.579C326.051 361.73 318.063 361.73 313.125 364.579L250.521 400.722Z" fill="#3282CC"/>
</g>
<g opacity="0.1">
<path opacity="0.1" d="M344.894 497.286L243.516 556.204L0.523926 415.91L101.902 356.997L344.894 497.286Z" fill="#3282CC"/>
</g>
<path d="M295.541 380.661C295.665 380.381 295.76 380.089 295.824 379.79C295.891 379.44 295.927 379.086 295.93 378.73C295.927 378.336 295.893 377.942 295.83 377.553C295.764 377.141 295.669 376.734 295.547 376.334C295.423 375.923 295.273 375.521 295.1 375.128C294.927 374.724 294.731 374.331 294.511 373.95C294.514 373.937 294.514 373.923 294.511 373.909C294.078 373.155 293.561 372.452 292.969 371.813C292.685 371.516 292.384 371.235 292.068 370.972C291.76 370.722 291.433 370.496 291.091 370.295C290.774 370.111 290.441 369.958 290.096 369.836C289.802 369.729 289.496 369.662 289.184 369.635C288.908 369.612 288.631 369.628 288.36 369.683C288.103 369.734 287.856 369.827 287.63 369.959L291.544 367.687C291.671 367.611 291.805 367.548 291.945 367.499C292.051 367.462 292.159 367.433 292.269 367.41L292.551 367.369H292.81H293.116H293.257L293.475 367.404L293.675 367.452L293.881 367.505L294.023 367.552H294.058L294.258 367.628L294.458 367.711L294.653 367.805L294.859 367.911L295.012 367.999L295.059 368.028L295.271 368.152L295.477 368.293L295.689 368.44L295.906 368.605L295.989 368.676H296.018L296.124 368.764L296.348 368.953L296.56 369.159L296.772 369.359L296.913 369.512L296.954 369.553L297.148 369.765C297.213 369.841 297.272 369.918 297.337 369.989L297.525 370.224L297.743 370.507C297.849 370.648 297.955 370.795 298.055 370.948C298.155 371.101 298.314 371.343 298.432 371.537L298.461 371.59V371.625C298.526 371.737 298.591 371.843 298.65 371.955L298.803 372.249L298.926 372.508L299.032 372.749L299.115 372.938L299.209 373.173L299.297 373.415L299.385 373.668C299.415 373.75 299.444 373.838 299.468 373.921V373.956C299.468 374.027 299.515 374.097 299.533 374.168L299.603 374.433C299.603 374.515 299.644 374.604 299.662 374.686L299.715 374.945C299.715 375.022 299.715 375.104 299.756 375.181L299.792 375.428C299.792 375.51 299.792 375.593 299.792 375.669C299.792 375.746 299.792 375.828 299.792 375.911C299.792 375.993 299.792 376.069 299.792 376.146V376.387C299.792 376.464 299.792 376.54 299.792 376.623C299.792 376.705 299.792 376.776 299.792 376.852C299.792 376.929 299.792 377.011 299.792 377.088L299.756 377.317C299.756 377.359 299.756 377.394 299.756 377.429V377.459C299.758 377.492 299.758 377.525 299.756 377.559C299.756 377.647 299.715 377.729 299.691 377.812C299.668 377.894 299.638 377.983 299.609 378.071C299.58 378.159 299.538 378.242 299.497 378.33C299.443 378.448 299.38 378.562 299.309 378.671C299.309 378.713 299.238 378.73 299.215 378.766C299.016 379.067 298.755 379.322 298.449 379.513L294.541 381.785C294.843 381.595 295.102 381.342 295.3 381.044C295.41 380.904 295.506 380.754 295.589 380.596L295.541 380.661Z" fill="#F8FBFF"/>
<path d="M294.484 381.866C296.404 380.751 296.399 377.16 294.474 373.846C292.548 370.532 289.43 368.749 287.51 369.865C285.591 370.981 285.595 374.572 287.521 377.886C289.447 381.2 292.564 382.982 294.484 381.866Z" fill="#C0DFFC"/>
<path d="M326.781 376.958L326.763 383.369L287.371 371.943L287.388 365.527L326.781 376.958Z" fill="#D4E9FF"/>
<path d="M326.781 376.958L334.605 372.408L334.587 378.824L326.764 383.369L326.781 376.958Z" fill="#5C5C5C"/>
<path d="M287.388 365.527L295.211 360.982L334.604 372.408L326.781 376.958L287.388 365.527Z" fill="#F8FBFF"/>
<path d="M373.532 375.098C373.532 375.016 373.532 374.933 373.532 374.857V374.615C373.532 374.533 373.532 374.451 373.532 374.374L373.568 374.121C373.568 374.044 373.568 373.962 373.609 373.88L373.662 373.621C373.662 373.538 373.703 373.45 373.721 373.362L373.791 373.103C373.791 373.038 373.827 372.973 373.85 372.908C373.848 372.891 373.848 372.873 373.85 372.855C373.85 372.767 373.903 372.685 373.933 372.596C373.962 372.508 373.986 372.431 374.015 372.349C374.044 372.267 374.08 372.19 374.109 372.108C374.139 372.025 374.174 371.949 374.203 371.866C374.233 371.784 374.256 371.755 374.28 371.696V371.654L374.386 371.419C374.427 371.331 374.468 371.242 374.515 371.16L374.662 370.866L374.839 370.554C374.841 370.536 374.841 370.518 374.839 370.501C374.849 370.477 374.863 370.455 374.88 370.436C374.992 370.236 375.116 370.042 375.239 369.847C375.363 369.653 375.445 369.547 375.551 369.406L375.769 369.117L375.958 368.888L376.146 368.664L376.34 368.452L376.381 368.405L376.523 368.252L376.729 368.046L376.946 367.846L377.17 367.652L377.288 367.557L377.37 367.493L377.588 367.328C377.659 367.275 377.729 367.222 377.806 367.175L378.012 367.034L378.224 366.904L378.271 366.875L378.43 366.786L378.63 366.686L378.83 366.592L379.024 366.51L379.225 366.433H379.26L379.407 366.386L379.607 366.333L379.813 366.286L380.025 366.251H380.166H380.473H380.726L381.008 366.292C381.265 366.341 381.512 366.432 381.738 366.563L385.647 368.835C385.421 368.707 385.177 368.616 384.923 368.564C384.65 368.506 384.37 368.49 384.093 368.517C383.784 368.544 383.479 368.61 383.186 368.711C382.843 368.83 382.512 368.982 382.197 369.164C381.852 369.366 381.523 369.594 381.214 369.847C380.896 370.106 380.595 370.385 380.314 370.683C379.724 371.317 379.208 372.016 378.777 372.767L378.742 372.82C378.523 373.189 378.327 373.57 378.153 373.962C377.98 374.357 377.831 374.762 377.706 375.175C377.585 375.576 377.49 375.985 377.423 376.399C377.361 376.788 377.33 377.182 377.329 377.576C377.328 377.93 377.361 378.283 377.429 378.63C377.489 378.928 377.581 379.218 377.706 379.495C377.787 379.654 377.883 379.804 377.994 379.943C378.19 380.239 378.447 380.49 378.748 380.679L374.974 378.465C374.676 378.273 374.42 378.023 374.221 377.729C374.221 377.688 374.15 377.676 374.127 377.635C374.059 377.527 373.998 377.415 373.944 377.3V377.27C373.904 377.19 373.869 377.107 373.838 377.023L373.75 376.764C373.75 376.682 373.709 376.599 373.685 376.511C373.688 376.476 373.688 376.44 373.685 376.405C373.685 376.358 373.685 376.328 373.685 376.293L373.65 376.058C373.65 375.981 373.65 375.899 373.65 375.822V375.587V375.339C373.526 375.245 373.532 375.169 373.532 375.098Z" fill="#F8FBFF"/>
<path d="M382.35 369.088C379.619 370.666 377.429 374.456 377.441 377.594C377.453 380.732 379.654 381.962 382.38 380.39C385.105 378.818 387.283 375.033 387.272 371.919C387.26 368.805 385.058 367.528 382.35 369.088Z" fill="#C0DFFC"/>
<path d="M346.566 375.858L346.584 382.245L385.977 370.836L385.959 364.426L346.566 375.858Z" fill="#D4E9FF"/>
<path d="M346.566 375.858L338.743 371.307L338.76 377.7L346.584 382.245L346.566 375.858Z" fill="#5C5C5C"/>
<path d="M385.959 364.426L378.136 359.881L338.743 371.307L346.566 375.857L385.959 364.426Z" fill="#F8FBFF"/>
<path d="M324.938 334.946C324.938 336.6 326.027 338.254 328.211 339.514C328.754 339.826 329.321 340.094 329.907 340.314L330.178 340.409C330.678 340.591 331.19 340.744 331.72 340.88L332.038 340.956C332.621 341.088 333.21 341.19 333.804 341.262H334.08C334.669 341.327 335.305 341.362 335.923 341.368H336.223C336.847 341.368 337.471 341.327 338.089 341.262L338.407 341.221C338.866 341.162 339.319 341.08 339.767 340.986C340.214 340.891 340.508 340.815 340.873 340.709C341.238 340.603 341.462 340.55 341.709 340.456C342.465 340.207 343.194 339.885 343.887 339.496C344.152 339.343 344.352 339.167 344.582 339.008C344.812 338.849 345.135 338.631 345.359 338.419C345.688 338.126 345.984 337.798 346.242 337.442C346.289 337.383 346.324 337.324 346.366 337.265C346.582 336.942 346.76 336.594 346.895 336.229L346.931 336.106C347.05 335.736 347.115 335.352 347.125 334.964L347.007 380.273C347.009 380.304 347.009 380.335 347.007 380.367C347.001 380.582 346.978 380.797 346.937 381.008C346.907 381.144 346.86 381.279 346.819 381.415C346.81 381.455 346.798 381.494 346.784 381.532C346.784 381.568 346.784 381.597 346.784 381.632C346.699 381.849 346.599 382.06 346.483 382.262C346.42 382.368 346.351 382.47 346.277 382.568C346.236 382.627 346.201 382.692 346.154 382.751C346.107 382.81 346.083 382.868 346.036 382.927C345.827 383.193 345.597 383.441 345.347 383.669L345.277 383.722C345.024 383.932 344.761 384.128 344.488 384.311C344.299 384.446 344.146 384.587 343.94 384.717L343.805 384.799C343.111 385.185 342.381 385.505 341.627 385.753C341.539 385.782 341.468 385.835 341.38 385.865C341.191 385.924 340.979 385.953 340.791 386.012C340.426 386.112 340.061 386.206 339.684 386.289C339.549 386.289 339.425 386.359 339.284 386.383C338.972 386.442 338.654 386.477 338.33 386.518L338.007 386.565H337.871C337.465 386.606 337.053 386.63 336.641 386.648H335.505C335.14 386.648 334.775 386.618 334.41 386.589L333.998 386.542H333.721L333.333 386.495C332.962 386.442 332.591 386.377 332.232 386.306C332.132 386.306 332.038 386.253 331.938 386.236L331.62 386.153C331.437 386.112 331.249 386.071 331.072 386.018C330.731 385.924 330.401 385.806 330.077 385.682C329.989 385.682 329.895 385.629 329.807 385.594H329.718C329.165 385.376 328.628 385.118 328.111 384.823C325.927 383.563 324.838 381.88 324.838 380.249L324.938 334.946Z" fill="#C0DFFC"/>
<path d="M343.852 330.437C348.208 332.95 348.232 337.024 343.899 339.537C339.567 342.051 332.562 342.045 328.206 339.537C323.85 337.03 323.844 332.962 328.153 330.454C332.462 327.947 339.508 327.929 343.852 330.437Z" fill="#676767"/>
<path d="M287.659 419.501C287.659 419.448 287.659 419.395 287.688 419.342C287.718 419.289 287.688 419.224 287.688 419.165C287.688 419.106 287.724 418.93 287.747 418.812C287.771 418.694 287.835 418.435 287.888 418.223C287.888 418.17 287.924 418.117 287.936 418.064C287.948 418.032 287.958 417.998 287.965 417.964C287.994 417.882 288.012 417.805 288.042 417.723C288.071 417.64 288.147 417.411 288.206 417.258C288.265 417.105 288.324 416.963 288.389 416.816C288.448 416.675 288.507 416.546 288.571 416.416L288.783 415.998C288.842 415.88 288.907 415.774 288.972 415.663V415.627V415.586C289.054 415.445 289.136 415.303 289.225 415.168L289.507 414.744L289.631 414.579L289.702 414.485L289.837 414.303C289.966 414.138 290.096 413.973 290.231 413.82C290.367 413.667 290.355 413.691 290.42 413.62L290.579 413.449L290.767 413.249C290.814 413.202 290.873 413.178 290.92 413.131C291.369 412.684 291.866 412.289 292.403 411.954C292.63 411.826 292.864 411.712 293.104 411.613C293.173 411.582 293.243 411.556 293.316 411.536L293.492 411.477C293.553 411.45 293.616 411.429 293.681 411.412C293.824 411.371 293.969 411.34 294.116 411.318H294.299H294.37H294.487H294.917C295.016 411.324 295.114 411.336 295.211 411.354H295.27H295.311L295.488 411.395C295.576 411.418 295.663 411.448 295.747 411.483L295.994 411.607L299.909 413.879C299.687 413.754 299.446 413.665 299.197 413.614H299.155C298.895 413.566 298.63 413.554 298.367 413.579H298.29C298.016 413.61 297.746 413.669 297.484 413.755L297.313 413.814C296.996 413.926 296.69 414.068 296.4 414.238C295.862 414.562 295.362 414.947 294.911 415.386C294.799 415.492 294.682 415.592 294.576 415.704L294.411 415.874C294.164 416.151 293.922 416.463 293.693 416.74L293.628 416.828C293.381 417.167 293.151 417.519 292.939 417.882V417.911C292.722 418.293 292.526 418.686 292.351 419.089C292.187 419.473 292.045 419.866 291.927 420.266C291.915 420.299 291.905 420.332 291.897 420.366C291.793 420.72 291.71 421.079 291.65 421.443L291.615 421.62C291.559 421.994 291.53 422.372 291.526 422.75C291.526 424.298 292.074 425.387 292.957 425.899L289.03 423.621C288.569 423.345 288.204 422.934 287.983 422.444C287.714 421.826 287.584 421.157 287.6 420.484C287.596 420.155 287.616 419.826 287.659 419.501Z" fill="#F8FBFF"/>
<path d="M296.401 414.256C299.126 412.678 301.334 413.932 301.339 417.069C301.345 420.207 299.161 423.974 296.43 425.552C293.699 427.13 291.515 425.858 291.509 422.744C291.503 419.63 293.687 415.816 296.401 414.256Z" fill="#C0DFFC"/>
<path d="M333.457 380.296L333.474 386.689L294.123 420.743L294.105 414.332L333.457 380.296Z" fill="#D4E9FF"/>
<path d="M294.123 420.743L286.299 416.198L286.282 409.782L294.105 414.332L294.123 420.743Z" fill="#C0DFFC"/>
<path d="M294.105 414.332L286.282 409.782L325.633 375.752L333.457 380.296L294.105 414.332Z" fill="#F8FBFF"/>
<path d="M379.466 420.89C379.406 420.528 379.324 420.17 379.219 419.818C379.212 419.784 379.202 419.751 379.19 419.718C379.072 419.317 378.928 418.924 378.76 418.541C378.586 418.149 378.39 417.768 378.171 417.399V417.364C377.96 417.003 377.73 416.653 377.483 416.316L377.418 416.228C377.194 415.926 376.955 415.638 376.7 415.362L376.535 415.186C376.429 415.08 376.311 414.98 376.205 414.88C375.751 414.429 375.245 414.034 374.698 413.702C374.41 413.535 374.106 413.395 373.792 413.284L373.621 413.226C373.359 413.141 373.089 413.081 372.815 413.049H372.744C372.48 413.024 372.215 413.038 371.955 413.09H371.914C371.666 413.143 371.427 413.235 371.208 413.361L375.116 411.089C375.195 411.042 375.278 411.003 375.363 410.971C375.447 410.934 375.534 410.902 375.622 410.877L375.799 410.836H375.834H375.899C375.993 410.836 376.093 410.836 376.193 410.8H376.517H376.623H376.741H376.923C377.07 410.824 377.216 410.855 377.359 410.894L377.541 410.959L377.718 411.018L377.936 411.095C378.171 411.193 378.399 411.307 378.619 411.436C379.165 411.768 379.671 412.163 380.126 412.613C380.173 412.655 380.232 412.684 380.279 412.725L380.455 412.919L380.62 413.096C380.685 413.167 380.756 413.231 380.814 413.302C380.873 413.373 381.085 413.62 381.215 413.791L381.338 413.955L381.409 414.05C381.451 414.113 381.496 414.174 381.544 414.232L381.827 414.656C381.915 414.791 381.998 414.933 382.08 415.074C382.08 415.074 382.08 415.074 382.08 415.109C382.151 415.221 382.215 415.339 382.28 415.462L382.492 415.874C382.551 415.998 382.604 416.122 382.663 416.251V416.281C382.733 416.434 382.792 416.581 382.845 416.728C382.898 416.875 382.963 417.04 383.016 417.193L383.087 417.423C383.094 417.457 383.104 417.49 383.116 417.523C383.116 417.576 383.151 417.635 383.163 417.693C383.216 417.876 383.263 418.064 383.304 418.282C383.346 418.5 383.34 418.506 383.363 418.624C383.387 418.741 383.363 418.741 383.393 418.8C383.422 418.859 383.393 418.906 383.393 418.965C383.433 419.283 383.452 419.604 383.452 419.924C383.504 420.887 383.207 421.836 382.616 422.597C382.445 422.788 382.246 422.952 382.027 423.086L378.112 425.358C378.995 424.846 379.543 423.751 379.549 422.197C379.545 421.82 379.516 421.445 379.46 421.072L379.466 420.89Z" fill="#F8FBFF"/>
<path d="M374.68 413.726C371.973 412.16 369.765 413.414 369.759 416.534C369.753 419.654 371.937 423.456 374.651 425.022C377.365 426.588 379.578 425.34 379.59 422.208C379.602 419.077 377.412 415.304 374.68 413.726Z" fill="#C0DFFC"/>
<path d="M337.642 379.76L337.625 386.171L376.953 420.219L376.97 413.808L337.642 379.76Z" fill="#D4E9FF"/>
<path d="M376.953 420.219L384.776 415.668L384.794 409.258L376.97 413.808L376.953 420.219Z" fill="#C0DFFC"/>
<path d="M376.97 413.808L384.794 409.258L345.465 375.216L337.642 379.76L376.97 413.808Z" fill="#F8FBFF"/>
<path d="M314.572 257.449L318.128 259.515L255.524 295.659L255.554 305.943L251.998 303.877L251.975 293.593L314.572 257.449Z" fill="url(#paint0_linear)"/>
<path d="M255.524 295.659L255.554 305.943L318.157 269.799L318.128 259.516L255.524 295.659Z" fill="url(#paint1_linear)"/>
<path d="M280.642 255.989L277.087 253.923L277.158 279.076L280.713 281.143L280.642 255.989Z" fill="#F8FBFF"/>
<path d="M289.59 250.821L286.035 248.755L277.087 253.923L280.642 255.989L289.59 250.821Z" fill="#C6C6C6"/>
<path d="M280.643 255.989L280.713 281.143L289.661 275.974L289.59 250.821L280.643 255.989Z" fill="#C0DFFC"/>
<path d="M248.454 262.8V262.871C248.529 263.079 248.63 263.276 248.755 263.459L248.825 263.565C248.972 263.767 249.14 263.952 249.326 264.119C249.463 264.232 249.607 264.338 249.755 264.437C249.883 264.538 250.017 264.633 250.156 264.719C250.76 265.054 251.408 265.303 252.08 265.461L252.387 265.537C253.102 265.695 253.832 265.776 254.565 265.779H254.647C255.419 265.779 256.189 265.694 256.943 265.526H257.031C257.746 265.364 258.434 265.1 259.074 264.743L312.742 233.756C313.288 233.461 313.763 233.049 314.131 232.549C314.422 232.148 314.582 231.667 314.59 231.172V235.292C314.59 236.187 313.878 237.152 312.742 237.859L259.074 268.84C258.784 269.006 258.483 269.152 258.173 269.275C257.926 269.37 257.673 269.458 257.408 269.534C257.284 269.57 257.155 269.593 257.031 269.623H256.943L256.749 269.67C256.543 269.711 256.336 269.746 256.125 269.776L255.536 269.846C255.33 269.846 255.124 269.876 254.912 269.882H254.264C254.029 269.882 253.793 269.882 253.558 269.835C253.323 269.787 253.016 269.77 252.752 269.723C252.634 269.723 252.528 269.664 252.416 269.64L252.11 269.564C251.927 269.517 251.733 269.487 251.557 269.428C251.08 269.281 250.62 269.084 250.185 268.84L250.108 268.799C249.985 268.722 249.897 268.634 249.785 268.557C249.636 268.459 249.493 268.353 249.355 268.239L249.314 268.21C249.174 268.081 249.044 267.941 248.925 267.792C248.9 267.758 248.876 267.723 248.855 267.686L248.784 267.58C248.749 267.527 248.702 267.468 248.672 267.415C248.606 267.298 248.549 267.176 248.501 267.05V266.997V266.921C248.464 266.837 248.434 266.751 248.413 266.662C248.388 266.542 248.374 266.419 248.372 266.297V266.238V262.117C248.364 262.348 248.392 262.578 248.454 262.8Z" fill="#C0DFFC"/>
<path d="M250.179 259.551C247.713 260.975 247.701 263.295 250.15 264.719C252.599 266.144 256.625 266.144 259.068 264.719L312.736 233.732C315.202 232.313 315.196 230 312.736 228.576C311.356 227.874 309.83 227.509 308.283 227.509C306.735 227.509 305.209 227.874 303.83 228.576L250.179 259.551Z" fill="#F8FBFF"/>
<path d="M247.024 299.944C247.024 299.985 247.024 300.033 247.065 300.08C247.213 300.494 247.411 300.89 247.654 301.257L247.795 301.463C248.09 301.865 248.425 302.236 248.796 302.57C249.076 302.804 249.371 303.02 249.679 303.217C249.93 303.428 250.193 303.625 250.468 303.806L312.659 339.949C313.447 340.388 314.275 340.751 315.132 341.033C315.444 341.144 315.761 341.233 316.079 341.321C316.497 341.439 316.915 341.551 317.345 341.639C317.775 341.727 318.357 341.839 318.875 341.904L319.252 341.951C319.954 342.025 320.659 342.065 321.365 342.069H321.713C322.413 342.069 323.108 342.021 323.797 341.951L324.114 341.915C324.795 341.834 325.471 341.718 326.139 341.568C326.263 341.568 326.381 341.509 326.499 341.48C327.097 341.337 327.686 341.16 328.264 340.95C328.37 340.915 328.476 340.885 328.576 340.844C329.238 340.593 329.879 340.292 330.495 339.943L393.099 303.8C394.197 303.2 395.151 302.368 395.895 301.363C396.485 300.558 396.808 299.588 396.819 298.59L396.855 310.923C396.855 312.806 395.619 314.69 393.129 316.132L330.531 352.276C329.948 352.608 329.342 352.897 328.718 353.141L328.612 353.176C328.512 353.218 328.406 353.247 328.3 353.282C327.935 353.412 327.576 353.547 327.193 353.659C326.987 353.718 326.769 353.759 326.557 353.812L326.198 353.901L325.88 353.977C325.468 354.065 325.05 354.136 324.627 354.195C324.479 354.195 324.326 354.23 324.173 354.248L323.855 354.283L323.402 354.33C322.99 354.366 322.572 354.389 322.16 354.401H320.865C320.394 354.401 319.929 354.354 319.464 354.307H319.311C319.182 354.307 319.064 354.271 318.934 354.254C318.575 354.213 318.21 354.171 317.857 354.107C317.698 354.077 317.557 354.024 317.404 353.995C316.974 353.906 316.556 353.795 316.144 353.677C315.92 353.618 315.685 353.583 315.467 353.512C315.367 353.477 315.29 353.424 315.19 353.388C314.333 353.108 313.505 352.745 312.718 352.305L250.509 316.109L250.356 316.02C250.114 315.873 249.944 315.708 249.726 315.555C249.419 315.353 249.124 315.133 248.843 314.896C248.814 314.878 248.787 314.859 248.76 314.837C248.478 314.577 248.216 314.296 247.978 313.995C247.925 313.931 247.889 313.86 247.842 313.795C247.795 313.731 247.748 313.654 247.701 313.583C247.654 313.513 247.536 313.36 247.471 313.242C247.339 313.013 247.227 312.772 247.136 312.524C247.121 312.487 247.11 312.45 247.1 312.412C247.1 312.365 247.1 312.318 247.059 312.271C247.008 312.12 246.965 311.967 246.93 311.812C246.882 311.573 246.854 311.331 246.847 311.088V310.976L246.812 298.643C246.819 299.085 246.89 299.523 247.024 299.944Z" fill="#C0DFFC"/>
<path d="M250.521 293.457C245.594 296.3 245.57 300.927 250.48 303.782L312.671 339.926C317.569 342.769 325.557 342.769 330.484 339.926L393.088 303.782C398.027 300.927 398.05 296.3 393.158 293.457L330.961 257.314C326.051 254.459 318.063 254.459 313.125 257.314L250.521 293.457Z" fill="#D4E9FF"/>
<path d="M345.748 152.939C345.365 152.813 344.971 152.726 344.57 152.68H344.464C344.081 152.649 343.695 152.668 343.317 152.739H343.258C342.894 152.812 342.544 152.944 342.222 153.127L351.11 147.965H351.146C351.263 147.9 351.381 147.841 351.505 147.788C351.628 147.735 351.758 147.694 351.887 147.653L352.141 147.594H352.199H352.288C352.429 147.594 352.57 147.553 352.717 147.541C352.876 147.532 353.035 147.532 353.194 147.541H353.353H353.453C353.547 147.541 353.636 147.541 353.724 147.57C353.936 147.603 354.146 147.646 354.354 147.7L354.631 147.8L354.878 147.882C354.984 147.918 355.084 147.947 355.196 147.994C355.539 148.139 355.873 148.304 356.196 148.489L397.75 172.477C398.212 172.751 398.655 173.058 399.074 173.395C399.216 173.507 399.345 173.636 399.48 173.754C399.616 173.872 399.922 174.119 400.128 174.343C400.21 174.419 400.281 174.507 400.363 174.584L400.605 174.843C400.705 174.955 400.817 175.061 400.917 175.178C401.117 175.408 401.305 175.638 401.505 175.879L401.641 176.061C401.67 176.103 401.7 176.15 401.735 176.191L401.982 176.527C402.124 176.727 402.259 176.933 402.394 177.145C402.53 177.357 402.612 177.492 402.718 177.669V177.71C402.719 177.723 402.719 177.737 402.718 177.751C402.836 177.951 402.948 178.147 403.054 178.34C403.16 178.54 403.265 178.746 403.36 178.928L403.53 179.293C403.53 179.329 403.53 179.358 403.572 179.393L403.648 179.552C403.736 179.764 403.825 179.976 403.907 180.194C403.99 180.412 404.078 180.641 404.148 180.865C404.148 180.924 404.184 180.983 404.201 181.042C404.218 181.082 404.232 181.123 404.243 181.165C404.284 181.312 404.331 181.454 404.372 181.595C404.449 181.872 404.513 182.142 404.572 182.413C404.572 182.513 404.608 182.613 404.625 182.719L404.678 183.008C404.678 183.149 404.731 183.296 404.749 183.437C404.796 183.826 404.825 184.208 404.837 184.579L407.775 281.378C407.822 283.733 407.021 285.434 405.691 286.205L396.802 291.385C398.132 290.614 398.939 288.942 398.886 286.558L395.99 189.736C395.972 189.207 395.917 188.68 395.825 188.158C395.825 188.064 395.825 187.964 395.778 187.864C395.678 187.343 395.55 186.829 395.395 186.322C395.395 186.275 395.366 186.233 395.354 186.192C395.174 185.632 394.964 185.081 394.724 184.544L394.677 184.444C394.429 183.891 394.15 183.353 393.841 182.831C393.843 182.817 393.843 182.803 393.841 182.79C393.542 182.279 393.213 181.786 392.858 181.312L392.77 181.189C392.446 180.759 392.099 180.353 391.745 179.97L391.498 179.705C391.216 179.417 390.91 179.152 390.621 178.893C390.486 178.775 390.35 178.646 390.209 178.534C389.79 178.197 389.347 177.89 388.885 177.616L347.308 153.64C346.887 153.407 346.448 153.21 345.995 153.051L345.748 152.939Z" fill="#D4E9FF"/>
<path d="M347.308 153.64C343.446 151.409 340.244 153.11 340.138 157.507L336.712 250.662C336.582 255.242 339.808 260.922 343.835 263.242L391.722 290.909C395.748 293.234 398.992 291.291 398.892 286.582L395.99 189.736C395.889 185.209 392.723 179.847 388.861 177.616L347.308 153.64Z" fill="#C0DFFC"/>
<path d="M393.782 304.671L397.337 306.737L334.734 342.881L334.763 353.165L331.208 351.099L331.178 340.815L393.782 304.671Z" fill="#F8FBFF"/>
<path d="M334.734 342.881L334.763 353.165L397.367 317.021L397.338 306.737L334.734 342.881Z" fill="#C0DFFC"/>
<path d="M359.846 303.211L356.296 301.145L356.367 326.304L359.917 328.371L359.846 303.211Z" fill="#F8FBFF"/>
<path d="M368.799 298.043L365.244 295.977L356.296 301.145L359.846 303.211L368.799 298.043Z" fill="#C6C6C6"/>
<path d="M359.846 303.212L359.916 328.371L368.87 323.202L368.799 298.043L359.846 303.212Z" fill="#C0DFFC"/>
<path d="M327.659 310.022C327.66 310.048 327.66 310.073 327.659 310.099C327.733 310.307 327.834 310.505 327.959 310.687C327.98 310.724 328.004 310.759 328.029 310.793C328.175 310.996 328.343 311.181 328.53 311.347C328.653 311.458 328.812 311.559 328.954 311.664C329.095 311.77 329.207 311.859 329.354 311.947C329.961 312.28 330.611 312.53 331.285 312.689L331.585 312.765C332.303 312.922 333.034 313.005 333.769 313.012H333.851C334.624 313.01 335.394 312.924 336.147 312.753H336.229C336.946 312.592 337.636 312.329 338.278 311.971L391.946 280.984C392.49 280.698 392.964 280.296 393.335 279.806C393.626 279.405 393.786 278.924 393.794 278.429V282.549C393.794 283.444 393.082 284.41 391.946 285.116L338.278 316.103C337.988 316.267 337.687 316.411 337.377 316.533C337.13 316.633 336.871 316.715 336.612 316.792L336.229 316.886H336.141L335.953 316.933C335.747 316.98 335.535 317.015 335.329 317.045C335.123 317.074 334.917 317.098 334.711 317.11C334.505 317.121 334.293 317.139 334.087 317.145H333.433C333.198 317.145 332.962 317.145 332.733 317.098C332.503 317.051 332.191 317.033 331.926 316.986C331.809 316.986 331.703 316.927 331.585 316.898L331.285 316.827C331.102 316.78 330.908 316.745 330.731 316.686C330.253 316.539 329.791 316.341 329.354 316.097C329.331 316.078 329.305 316.062 329.277 316.05C329.154 315.973 329.066 315.891 328.954 315.809C328.807 315.71 328.665 315.604 328.53 315.491H328.489C328.348 315.36 328.216 315.221 328.094 315.073L328.029 314.967C328.004 314.935 327.98 314.901 327.959 314.867C327.918 314.808 327.876 314.755 327.841 314.696C327.777 314.581 327.721 314.461 327.676 314.337C327.674 314.317 327.674 314.298 327.676 314.278C327.676 314.278 327.676 314.231 327.676 314.207C327.676 314.184 327.629 314.054 327.612 313.978C327.589 313.857 327.575 313.735 327.57 313.613V313.56V309.439C327.574 309.637 327.603 309.833 327.659 310.022Z" fill="#C0DFFC"/>
<path d="M329.407 306.773C326.946 308.197 326.934 310.522 329.377 311.941C330.76 312.643 332.289 313.009 333.839 313.009C335.39 313.009 336.919 312.643 338.301 311.941L391.969 280.96C394.43 279.536 394.43 277.222 391.969 275.798C390.59 275.096 389.064 274.731 387.516 274.731C385.968 274.731 384.443 275.096 383.063 275.798L329.407 306.773Z" fill="#F8FBFF"/>
<path d="M268.31 454.237L267.521 474.646L257.709 474.346L257.173 454.237H268.31Z" fill="#FFC3CF"/>
<path d="M262.741 467.152C265.628 467.152 267.968 464.812 267.968 461.925C267.968 459.038 265.628 456.698 262.741 456.698C259.854 456.698 257.514 459.038 257.514 461.925C257.514 464.812 259.854 467.152 262.741 467.152Z" fill="#FFC3CF"/>
<path d="M256.042 386.5C262.619 386.5 267.951 381.169 267.951 374.592C267.951 368.015 262.619 362.683 256.042 362.683C249.465 362.683 244.134 368.015 244.134 374.592C244.134 381.169 249.465 386.5 256.042 386.5Z" fill="#FFC3CF"/>
<path d="M257.585 462.79L244.216 376.058L267.404 371.013C267.404 371.013 277.617 388.219 267.963 462.214L257.585 462.79Z" fill="#FFC3CF"/>
<path d="M256.042 386.5C262.619 386.5 267.951 381.169 267.951 374.592C267.951 368.015 262.619 362.683 256.042 362.683C249.465 362.683 244.134 368.015 244.134 374.592C244.134 381.169 249.465 386.5 256.042 386.5Z" fill="#FFC3CF"/>
<path d="M256.961 275.121C266.171 275.121 273.638 267.654 273.638 258.444C273.638 249.234 266.171 241.767 256.961 241.767C247.751 241.767 240.284 249.234 240.284 258.444C240.284 267.654 247.751 275.121 256.961 275.121Z" fill="#FFC3CF"/>
<path d="M240.29 258.479L244.139 375.033L267.933 375.287C271.431 349.752 273.397 324.03 273.819 298.261C274.102 280.483 274.638 274.126 273.655 258.391L240.29 258.479Z" fill="#FFC3CF"/>
<path d="M260.545 382.957C260.545 382.957 269.464 427.618 263.106 474.522L267.521 474.652L268.027 461.76C275.839 401.547 270.458 379.113 268.239 372.955C269.263 365.232 270.199 357.203 270.976 348.915L243.31 350.81L257.608 361.324C258.603 362.054 259.408 363.013 259.956 364.119C260.504 365.225 260.779 366.447 260.757 367.681L260.545 382.957Z" fill="#EFB1C0"/>
<path d="M268.758 475.152V476.512C268.76 477.013 268.614 477.504 268.338 477.923C268.063 478.342 267.67 478.67 267.209 478.867C266.167 479.308 264.766 479.932 263.53 480.597C261.176 481.845 259.645 483.299 257.685 484.683C255.638 486.199 253.168 487.036 250.621 487.078C248.363 487.197 246.104 486.875 243.969 486.131C242.38 485.542 242.397 483.47 242.397 483.47L268.758 475.152Z" fill="#EDB85A"/>
<path d="M267.71 469.89C267.71 469.89 270.606 475.641 267.71 477.006C264.813 478.372 261.593 479.667 258.997 481.81C256.401 483.953 254.377 486.26 248.731 485.93C243.086 485.601 240.402 483.752 244.022 480.962C247.642 478.172 251.775 475.034 254.153 472.35C255.323 471.078 256.412 469.733 257.414 468.324C258.632 468.589 259.746 469.207 260.616 470.099C261.487 470.992 262.076 472.12 262.312 473.345C262.312 473.345 266.197 473.357 267.71 469.89Z" fill="#483F5E"/>
<path d="M293.063 479.338L292.28 499.74L282.467 499.446L281.925 479.338H293.063Z" fill="#FFC3CF"/>
<path d="M287.4 493.601C290.287 493.601 292.627 491.26 292.627 488.374C292.627 485.487 290.287 483.146 287.4 483.146C284.513 483.146 282.173 485.487 282.173 488.374C282.173 491.26 284.513 493.601 287.4 493.601Z" fill="#FFC3CF"/>
<path d="M284.663 393.994C291.24 393.994 296.571 388.662 296.571 382.086C296.571 375.509 291.24 370.177 284.663 370.177C278.086 370.177 272.754 375.509 272.754 382.086C272.754 388.662 278.086 393.994 284.663 393.994Z" fill="#FFC3CF"/>
<path d="M282.202 488.98L272.784 382.957L296.189 379.095C307.821 412.484 296.189 472.262 292.598 488.945L282.202 488.98Z" fill="#FFC3CF"/>
<path d="M284.663 393.994C291.24 393.994 296.571 388.662 296.571 382.086C296.571 375.509 291.24 370.177 284.663 370.177C278.086 370.177 272.754 375.509 272.754 382.086C272.754 388.662 278.086 393.994 284.663 393.994Z" fill="#FFC3CF"/>
<path d="M283.244 272.142C292.454 272.142 299.921 264.676 299.921 255.465C299.921 246.255 292.454 238.789 283.244 238.789C274.034 238.789 266.567 246.255 266.567 255.465C266.567 264.676 274.034 272.142 283.244 272.142Z" fill="#FFC3CF"/>
<path d="M266.573 255.677L272.766 382.662H296.559C299.781 357.093 301.468 331.354 301.61 305.584C301.71 287.806 301.069 270.988 299.921 255.248L266.573 255.677Z" fill="#FFC3CF"/>
<path d="M285.911 499.54L292.286 499.746L292.716 488.362C296.354 471.291 307.291 414.191 296.772 380.896C298.008 370.972 299.034 360.584 299.85 349.733L271.683 360.541L284.804 364.967C285.801 365.305 286.653 365.971 287.221 366.857C287.789 367.742 288.039 368.795 287.93 369.841L286.5 383.575C286.5 383.575 299.379 426.953 285.911 499.54Z" fill="#EFB1C0"/>
<path d="M293.298 497.333L293.71 500.152C293.76 500.481 293.738 500.816 293.646 501.135C293.226 502.591 292.979 504.09 292.91 505.603C292.839 508.105 293.045 510.942 290.208 512.797C287.371 514.651 285.11 515.87 280.754 516.14C276.398 516.411 276.563 512.903 276.563 512.903L288.012 509.624L293.298 497.333Z" fill="#EDB85A"/>
<path d="M292.492 494.231C292.492 494.231 292.645 496.52 290.903 497.763C290.903 497.763 286.629 492.418 282.662 497.28C282.465 496.883 282.36 496.446 282.356 496.002C281.432 497.549 280.766 499.235 280.384 500.994C279.571 504.285 279.171 505.957 277.699 508.894C276.228 511.831 275.562 515.11 279.365 515.14C283.168 515.169 286.023 513.88 288.737 512.385C291.45 510.89 292.033 508.688 292.033 505.957C292.033 503.225 292.622 501.612 293.046 499.752C293.536 497.905 293.339 495.943 292.492 494.231Z" fill="#483F5E"/>
<path d="M302.199 244.669C302.199 244.669 322.92 293.969 304.501 354.477C304.501 354.477 298.314 361.371 284.999 360.953C271.683 360.535 253.046 361.606 240.196 348.002C240.196 348.002 229.906 288.819 241.002 238.471L302.199 244.669Z" fill="#448CE5"/>
<path d="M284.722 360.947H284.992C298.314 361.365 304.501 354.472 304.501 354.472C322.92 293.969 302.199 244.663 302.199 244.663L288.819 243.31C290.632 254.1 295.006 282.302 295.353 303.782C295.7 325.262 292.474 346.401 284.722 360.947Z" fill="#2B76C1"/>
<path d="M261.334 241.62L259.103 251.133" stroke="#F2F2F2" stroke-miterlimit="10" stroke-linecap="round"/>
<path d="M240.537 239.548C240.513 239.69 240.533 239.836 240.596 239.965C240.658 240.095 240.759 240.202 240.885 240.272C251.386 246.088 265.437 251.669 281.649 251.068C293.84 250.621 300.186 248.013 302.658 246.694C302.768 246.631 302.854 246.533 302.904 246.417C302.954 246.3 302.965 246.17 302.935 246.047C302.582 244.681 302.346 243.363 302.193 242.597C302.186 242.55 302.168 242.505 302.14 242.466C302.113 242.427 302.076 242.395 302.033 242.373C301.99 242.351 301.943 242.34 301.895 242.34C301.847 242.34 301.8 242.351 301.758 242.374C294.523 245.906 282.332 247.86 270.388 246.206C259.056 244.64 244.14 237.376 241.544 236.081C241.498 236.058 241.447 236.046 241.396 236.047C241.344 236.047 241.293 236.06 241.248 236.083C241.202 236.107 241.162 236.14 241.132 236.182C241.102 236.223 241.081 236.271 241.073 236.322L240.537 239.548Z" fill="#342E47"/>
<path d="M264.23 246.534C264.397 243.684 262.762 241.27 260.577 241.143C258.393 241.015 256.487 243.221 256.321 246.071C256.154 248.92 257.789 251.334 259.973 251.462C262.158 251.59 264.064 249.383 264.23 246.534Z" stroke="#F2F2F2" stroke-miterlimit="10" stroke-linecap="round"/>
<path d="M297.572 243.692L298.867 248.778" stroke="#483F5E" stroke-miterlimit="10" stroke-linecap="round"/>
<path d="M284.298 246.147L284.651 251.386" stroke="#483F5E" stroke-miterlimit="10" stroke-linecap="round"/>
<path d="M271.165 245.764L270.623 250.992" stroke="#483F5E" stroke-miterlimit="10" stroke-linecap="round"/>
<path d="M253.446 240.89L251.916 245.911" stroke="#483F5E" stroke-miterlimit="10" stroke-linecap="round"/>
<path d="M243.216 236.328L241.685 241.349" stroke="#483F5E" stroke-miterlimit="10" stroke-linecap="round"/>
<path d="M251.156 160.468C257.363 160.468 262.394 155.437 262.394 149.23C262.394 143.024 257.363 137.993 251.156 137.993C244.95 137.993 239.919 143.024 239.919 149.23C239.919 155.437 244.95 160.468 251.156 160.468Z" fill="#94C2FC"/>
<path d="M223.513 214.012C228.754 214.012 233.002 209.764 233.002 204.523C233.002 199.282 228.754 195.034 223.513 195.034C218.272 195.034 214.024 199.282 214.024 204.523C214.024 209.764 218.272 214.012 223.513 214.012Z" fill="#94C2FC"/>
<path d="M241.208 144.003L215.113 200.108L231.919 208.938L261.105 154.458L241.208 144.003Z" fill="#94C2FC"/>
<path opacity="0.5" d="M249.284 176.521L236.128 201.085L239.842 151.32L249.284 176.521Z" fill="#448CE5"/>
<path d="M309.357 255.542C309.357 255.542 298.549 262.888 273.484 256.166C256.266 251.545 244.946 248.366 239.542 246.824C238.562 246.546 237.726 245.903 237.207 245.026C236.688 244.15 236.525 243.108 236.752 242.115C238.371 235.133 241.561 219.157 241.302 202.987C240.955 181.43 238.512 157.69 240.307 147.123C242.103 136.557 252.469 135.644 257.273 137.016C262.076 138.387 280.695 144.615 297.572 157.619C314.449 170.622 319.217 180.806 315.82 191.496C312.424 202.186 302.846 214.778 309.357 255.542Z" fill="#94C2FC"/>
<path d="M282.444 156.124C282.444 156.124 286.241 151.591 286.241 147.111V134.967H259.474C259.474 134.967 249.856 152.262 268.805 155.676C268.805 155.676 274.632 158.472 282.444 156.124Z" fill="#EDB1AA"/>
<path d="M285.387 136.639C285.387 136.639 273.178 155.235 256.955 144.88L257.031 132.789L285.387 136.639Z" fill="#DB9893"/>
<path d="M286.24 147.111C284.287 149.889 281.666 152.129 278.619 153.626C275.571 155.123 272.196 155.828 268.804 155.676L270.423 170.034C270.423 170.034 285.469 162.575 288.701 151.585L286.24 147.111Z" fill="#F9FAFF"/>
<path d="M258.491 162.711L268.804 155.647C268.804 155.647 256.696 148.536 261.228 136.504L257.272 136.98C257.272 136.98 251.851 149.896 258.491 162.711Z" fill="#F9FAFF"/>
<path d="M260.027 104.228L256.495 106.771C256.495 106.771 254.076 112.545 255.542 117.549L260.027 104.228Z" fill="#143C68"/>
<path d="M256.955 108.06C256.955 108.06 254.429 118.944 255.189 127.868C255.948 136.792 257.714 145.051 268.804 144.898C279.895 144.745 289.407 132.801 289.407 132.801C289.407 132.801 284.616 112.351 275.344 105.988C266.073 99.6243 256.955 108.06 256.955 108.06Z" fill="#EDB1AA"/>
<path d="M256.725 107.995C256.725 107.995 264.189 106.618 269.411 109.761C274.632 112.904 272.501 120.057 276.31 122.906C280.118 125.755 278.694 128.074 281.478 129.687C284.262 131.3 284.209 135.644 285.387 136.639C285.387 136.639 295.983 130.393 299.514 124.589C303.046 118.785 303.706 109.726 301.198 104.322C298.69 98.918 293.151 93.8084 283.786 92.8254C274.42 91.8423 271.653 89.8056 265.537 91.0594C259.421 92.3133 252.887 98.2116 256.725 107.995Z" fill="#143C68"/>
<path d="M263.13 145.022C263.13 145.022 277.128 148.271 283.144 136.115L284.828 132.807" stroke="#448CE5" stroke-width="3" stroke-miterlimit="10"/>
<path d="M266.085 145.447C266.261 144.218 265.083 143.032 263.455 142.799C261.826 142.566 260.363 143.374 260.188 144.603C260.012 145.833 261.189 147.018 262.818 147.251C264.446 147.484 265.909 146.676 266.085 145.447Z" fill="#448CE5"/>
<path d="M294.546 120.233C294.546 125.531 290.814 132.006 286.217 134.655C285.875 134.856 285.387 136.639 285.387 136.639C285.387 136.639 282.314 135.95 281.172 135.603C279.176 135.014 277.887 132.966 277.887 129.846C277.887 124.548 281.619 118.073 286.217 115.424C289.001 113.817 291.462 113.97 292.974 115.518L295.994 118.644C295.994 118.644 294.546 119.174 294.546 120.233Z" fill="#448CE5"/>
<path d="M295.087 130.146C298.016 125.072 298.017 119.589 295.089 117.898C292.161 116.208 287.412 118.95 284.483 124.024C281.554 129.097 281.553 134.581 284.481 136.271C287.409 137.962 292.157 135.219 295.087 130.146Z" fill="#69A3EA"/>
<path d="M293.499 117.496C293.153 119.79 292.241 121.961 290.844 123.812L288.825 124.742C287.553 125.331 286.164 125.92 286.235 125.855C286.785 125.168 287.25 124.417 287.618 123.618C288.203 122.325 288.626 120.965 288.878 119.568C288.907 119.385 288.942 119.197 288.972 118.979L289.007 118.726C289.037 118.544 289.072 118.349 289.095 118.138C289.119 117.926 289.125 117.826 289.148 117.661C289.172 117.496 289.19 117.213 289.201 116.996C289.207 116.919 289.207 116.842 289.201 116.766C289.201 116.472 289.231 116.177 289.243 115.883C289.311 113.835 289.181 111.784 288.854 109.761C288.854 109.726 288.854 109.684 288.854 109.649C288.825 109.414 288.778 109.155 288.725 108.907C288.577 108.154 288.413 107.406 288.23 106.682C288.055 105.948 287.843 105.223 287.594 104.51C287.483 104.151 287.359 103.798 287.235 103.445C286.86 102.405 286.432 101.385 285.952 100.39C285.852 100.16 285.74 99.9421 285.628 99.7361C285.41 99.3064 285.187 98.8943 284.945 98.4999C284.71 98.0997 284.475 97.7111 284.216 97.3226C283.962 96.9459 283.709 96.575 283.438 96.2218C283.174 95.8686 282.897 95.5272 282.608 95.2035C282.34 94.8715 282.051 94.5569 281.743 94.2616L281.525 94.0379L281.296 93.826L281.09 93.6376C280.931 93.4846 280.76 93.3433 280.601 93.2138L280.248 92.9312C280.13 92.8429 280.018 92.7605 279.901 92.684C279.751 92.5643 279.593 92.4542 279.43 92.3544L279.053 92.1248L279 92.0895L278.941 92.06C278.904 92.0314 278.862 92.0095 278.818 91.9953C278.656 91.8967 278.489 91.8082 278.317 91.7304C278.043 91.5965 277.76 91.4824 277.469 91.389C277.278 91.3161 277.081 91.259 276.881 91.2183C276.876 91.2161 276.871 91.215 276.866 91.215C276.861 91.215 276.856 91.2161 276.851 91.2183C276.675 91.1727 276.496 91.1374 276.316 91.1123C276.269 91.1071 276.221 91.1071 276.174 91.1123C276.08 91.0882 275.983 91.0763 275.886 91.077H275.721C277.593 90.7907 279.484 90.649 281.378 90.6531C282.485 90.6386 283.583 90.86 284.598 91.3025C285.613 91.745 286.522 92.3986 287.265 93.2197L287.371 93.3374C290.703 97.3344 293.004 103.345 293.681 109.278C294.026 112.011 293.964 114.781 293.499 117.496Z" fill="#69A3EA"/>
<path d="M289.266 115.912C289.266 116.201 289.266 116.501 289.225 116.795C289.231 116.872 289.231 116.949 289.225 117.025C289.225 117.243 289.195 117.461 289.172 117.69C289.148 117.92 289.137 118.008 289.119 118.167C289.101 118.326 289.06 118.555 289.031 118.756L288.995 119.009C288.926 118.951 288.861 118.888 288.801 118.82C288.736 118.744 288.642 118.638 288.666 118.55C289.094 115.656 289.072 112.713 288.601 109.826C287.653 103.639 284.939 97.5522 281.178 94.0438C280.681 93.5701 280.146 93.1389 279.577 92.7546C279.157 92.4664 278.714 92.2143 278.252 92.0011C277.379 91.5678 276.424 91.325 275.45 91.2889C275.37 91.283 275.289 91.283 275.209 91.2889H275.05C274.825 91.3007 274.601 91.3263 274.379 91.3654C274.82 91.2477 275.262 91.1358 275.721 91.0475H275.886C275.983 91.0469 276.08 91.0588 276.174 91.0828C276.221 91.0776 276.269 91.0776 276.316 91.0828C276.496 91.1079 276.675 91.1433 276.851 91.1888C276.856 91.1867 276.861 91.1856 276.866 91.1856C276.871 91.1856 276.876 91.1867 276.881 91.1888C277.081 91.2296 277.278 91.2867 277.469 91.3595C277.76 91.4529 278.043 91.567 278.317 91.7009C278.489 91.7787 278.656 91.8672 278.817 91.9658C278.862 91.98 278.904 92.0019 278.941 92.0306L279.012 92.06L279.065 92.0953L279.441 92.3249C279.594 92.4309 279.759 92.5368 279.912 92.6545L280.26 92.9018L280.613 93.1843C280.772 93.3138 280.942 93.4551 281.101 93.6082C281.166 93.667 281.243 93.72 281.307 93.7907C281.372 93.8613 281.466 93.9319 281.537 94.0085L281.755 94.2321C282.063 94.5274 282.352 94.842 282.62 95.174C282.909 95.4978 283.209 95.8392 283.45 96.1924C283.721 96.5456 283.974 96.9164 284.227 97.2932C284.486 97.6699 284.722 98.0584 284.957 98.4705C285.198 98.8649 285.422 99.2769 285.64 99.7067C285.752 99.9127 285.864 100.13 285.964 100.36C286.329 101.09 286.652 101.855 286.953 102.626C287.053 102.891 287.153 103.15 287.247 103.415C287.371 103.768 287.494 104.122 287.606 104.481C287.854 105.194 288.066 105.919 288.242 106.653C288.424 107.377 288.589 108.124 288.736 108.878C288.789 109.125 288.836 109.384 288.866 109.62C288.866 109.661 288.866 109.696 288.866 109.732C289.2 111.774 289.334 113.844 289.266 115.912Z" fill="#448CE5"/>
<path d="M295.318 130.265C297.905 125.786 297.904 120.943 295.316 119.45C292.729 117.956 288.535 120.376 285.948 124.856C283.362 129.335 283.363 134.177 285.951 135.671C288.538 137.165 292.732 134.745 295.318 130.265Z" fill="#448CE5"/>
<path d="M295.231 130.229C297.302 126.642 297.304 122.765 295.234 121.571C293.165 120.376 289.808 122.315 287.738 125.902C285.667 129.489 285.665 133.365 287.735 134.56C289.804 135.755 293.161 133.816 295.231 130.229Z" fill="#F8FBFF"/>
<path opacity="0.5" d="M315.814 191.473C312.406 202.163 302.864 214.777 309.339 255.542C309.339 255.542 305.354 258.244 296.624 258.868C294.47 247.095 294.493 231.913 294.493 231.913C291.432 235.28 285.328 235.445 275.556 233.75C268.828 232.573 250.415 228.893 239.601 226.686C239.966 224.202 240.296 221.559 240.566 218.816C256.919 223.072 295.058 223.495 295.058 223.495C295.541 217.362 298.002 209.138 298.002 209.138C293.881 210.828 280.683 217.126 280.683 217.126L267.556 213.706L316.591 188.117C316.422 189.255 316.163 190.377 315.814 191.473Z" fill="#448CE5"/>
<path opacity="0.5" d="M280.754 154.069L286.24 147.111L286.947 190.119L272.466 198.625L280.754 154.069Z" fill="#448CE5"/>
<path d="M273.914 148.495C273.914 148.495 272.26 139.665 277.846 138.111C283.432 136.557 283.733 134.273 283.733 132.053C283.733 129.834 284.998 127.674 287.895 130.535C290.791 133.396 290.885 138.434 288.624 141.813C286.82 144.351 285.596 147.255 285.04 150.319C285.04 150.319 278.853 154.352 273.914 148.495Z" fill="#EDB1AA"/>
<path d="M274.414 227.71C274.414 227.71 282.708 230.965 289.042 230.065C295.376 229.164 300.633 218.668 296.883 218.751C293.133 218.833 291.203 221.276 285.875 219.133C280.548 216.991 279.959 216.691 277.463 216.873C274.968 217.055 270.194 220.894 274.414 227.71Z" fill="#EDB1AA"/>
<path d="M271.112 227.351C274.877 227.351 277.929 224.299 277.929 220.535C277.929 216.77 274.877 213.718 271.112 213.718C267.347 213.718 264.295 216.77 264.295 220.535C264.295 224.299 267.347 227.351 271.112 227.351Z" fill="#94C2FC"/>
<path d="M223.513 214.012C228.754 214.012 233.002 209.764 233.002 204.523C233.002 199.282 228.754 195.034 223.513 195.034C218.272 195.034 214.024 199.282 214.024 204.523C214.024 209.764 218.272 214.012 223.513 214.012Z" fill="#94C2FC"/>
<path d="M226.721 195.593L279.736 216.32L275.55 228.887L220.917 213.653L226.721 195.593Z" fill="#94C2FC"/>
<path opacity="0.15" d="M279.548 216.891C279.945 216.95 280.339 217.036 280.725 217.15L272.548 220.929C270.761 221.754 268.789 222.094 266.828 221.916C264.868 221.738 262.989 221.049 261.379 219.916C259.769 218.783 258.486 217.247 257.657 215.462C256.827 213.677 256.482 211.705 256.655 209.744L256.861 207.349L279.771 216.308L279.548 216.891Z" fill="#448CE5"/>
<path d="M278.753 190.366L302.67 174.242C304.034 173.323 305.601 172.748 307.236 172.57C308.871 172.391 310.525 172.612 312.056 173.216C313.586 173.819 314.946 174.785 316.02 176.032C317.093 177.278 317.847 178.767 318.216 180.37C318.88 183.238 318.577 186.244 317.354 188.921C316.13 191.598 314.055 193.795 311.453 195.169L272.801 215.596C264.437 220.016 254.841 212.299 257.367 203.187L273.496 144.91L286.24 147.123L278.753 190.366Z" fill="#94C2FC"/>
<path d="M286.24 147.111L285.51 151.32L272.301 149.219L273.496 144.898L286.24 147.111Z" fill="#F9FAFF"/>
<path d="M10.484 317.875C7.54069 319.606 5.66287 323.279 5.6511 328.471L5.39209 418.83L106.771 359.952L107.03 269.605C107.03 264.389 108.89 260.716 111.862 259.009L10.484 317.875Z" fill="#C0DFFC"/>
<path d="M221.641 427.954C233.738 434.941 243.557 451.942 243.516 465.846L243.257 556.204L237.87 553.09L238.124 462.732C238.153 452.242 230.748 439.415 221.641 434.146L22.263 319.052C13.1271 313.754 5.68054 318.022 5.65111 328.512L5.3921 418.871L0 415.757L0.259009 325.398C0.294329 311.494 10.172 305.866 22.2807 312.854L221.641 427.954Z" fill="#D4E9FF"/>
<path d="M323.02 369.041L123.659 253.935C117.567 250.403 112.039 250.097 108.048 252.422L6.66357 311.335C10.6606 309.016 16.188 309.333 22.2806 312.854L221.641 427.954C233.738 434.941 243.557 451.942 243.516 465.846L243.257 556.204L344.641 497.286L344.894 406.927C344.953 393.023 335.122 376.022 323.02 369.041Z" fill="#F8FBFF"/>
<path opacity="0.1" d="M58.389 312.095C65.0406 312.076 70.4242 308.938 70.4134 305.086C70.4026 301.233 65.0017 298.125 58.35 298.144C51.6984 298.162 46.3149 301.3 46.3256 305.153C46.3364 309.005 51.7373 312.113 58.389 312.095Z" fill="#3282CC"/>
<path d="M58.3919 292.022C65.0436 292.003 70.4271 288.865 70.4163 285.013C70.4056 281.16 65.0046 278.052 58.353 278.071C51.7013 278.089 46.3178 281.227 46.3286 285.08C46.3393 288.932 51.7403 292.04 58.3919 292.022Z" fill="#F8FBFF"/>
<path d="M58.3887 290.886C63.9578 290.87 68.4651 288.243 68.4561 285.018C68.4471 281.793 63.9252 279.191 58.3561 279.207C52.7871 279.222 48.2798 281.849 48.2888 285.074C48.2978 288.299 52.8197 290.901 58.3887 290.886Z" fill="#448CE5"/>
<path d="M66.4416 305.166C66.4416 305.166 66.4416 305.119 66.4416 305.101L66.4887 304.983C66.4854 304.964 66.4854 304.944 66.4887 304.924L66.5417 304.748L70.2326 286.117C70.2326 286.199 70.1855 286.287 70.1561 286.37C70.1446 286.397 70.1347 286.424 70.1266 286.452C70.1266 286.511 70.0854 286.57 70.0619 286.623C70.0383 286.676 70.0619 286.688 70.0207 286.723L69.95 286.882L69.8971 286.982L69.8264 287.117L69.744 287.265C69.7206 287.307 69.6951 287.348 69.6675 287.388C69.638 287.435 69.6086 287.488 69.5733 287.535L69.4909 287.659C69.4594 287.709 69.424 287.756 69.3849 287.8L69.2966 287.924L69.1789 288.065L69.0729 288.195L69.0141 288.259L68.8492 288.436L68.8021 288.483C68.7315 288.56 68.655 288.63 68.5785 288.701L68.5255 288.748L68.3371 288.919L68.2665 288.983L68.0192 289.184L67.7485 289.39L67.666 289.443L67.4188 289.613L67.3776 289.643L67.0774 289.831L67.0067 289.872L66.6889 290.061L66.2709 290.279L66.1414 290.343L65.8353 290.49L65.694 290.555L65.3408 290.708L65.2467 290.749L64.7934 290.926L64.6757 290.967L64.3225 291.091L64.1694 291.138C64.0517 291.179 63.9398 291.214 63.8221 291.244L63.6867 291.285L63.4866 291.344L63.0686 291.45L62.8449 291.503C62.7154 291.538 62.58 291.568 62.4505 291.591L62.221 291.638L61.7912 291.721L61.597 291.756L60.9671 291.85L60.4315 291.909H60.2607L59.884 291.939H59.678H59.3424H59.1187H58.0768H57.6412H57.5411L57.0114 291.909H56.8171L56.4639 291.88H56.2402L55.9164 291.844H55.6869L55.369 291.803L55.1394 291.768L54.7803 291.709H54.6744L54.1917 291.615H54.0975L53.6854 291.515H53.5913L53.1203 291.397L53.0203 291.368L52.62 291.244H52.5376L52.0902 291.091L51.9901 291.056L51.5957 290.908H51.531L51.1071 290.726L51.0071 290.685L50.6127 290.502C50.4714 290.437 50.3419 290.367 50.2065 290.296L50.1123 290.243L49.7179 290.02C47.9519 288.96 46.8982 287.665 46.5215 286.305C47.7753 290.832 49.0351 300.398 50.2889 304.918C50.6694 306.017 51.4547 306.928 52.4846 307.467L52.8437 307.667L52.9614 307.726L53.2322 307.862L53.3499 307.915L53.6854 308.062H53.7443L54.1505 308.215L54.2682 308.25L54.5802 308.35L54.7156 308.392L55.0511 308.486H55.1512L55.5868 308.586H55.6928L56.0401 308.651H56.1107H56.2226H56.3874H56.5993H56.7582H56.9819H57.135H57.3763H57.5117C57.6236 308.651 57.7354 308.651 57.8531 308.651H59.107H59.3424H59.4837H59.7368H59.8546L60.2254 308.609L60.661 308.545H60.7905L61.0849 308.492L61.2438 308.456L61.5146 308.397L61.6676 308.362L61.9561 308.286H62.0503L62.533 308.138L62.6389 308.097C62.7861 308.05 62.9332 307.991 63.0745 307.938H63.1275C63.2805 307.879 63.4336 307.809 63.5808 307.744L63.6867 307.691L64.1223 307.467L64.4049 307.297L64.4932 307.244L64.6816 307.12L64.7286 307.091H64.764L65.0289 306.896L65.2761 306.69L65.3408 306.631L65.5292 306.455L65.5704 306.414C65.6411 306.343 65.7058 306.272 65.7706 306.196L65.8177 306.143L65.8942 306.043C65.9176 306.017 65.9392 305.989 65.9589 305.96L66.0296 305.86L66.0884 305.778C66.0884 305.743 66.1296 305.707 66.1532 305.678L66.2062 305.59L66.2592 305.489V305.442V305.395C66.2615 305.372 66.2615 305.348 66.2592 305.325L66.4416 305.166Z" fill="#D4E9FF"/>
<path d="M49.2645 293.151C49.8826 291.77 50.7893 290.538 51.9234 289.537C53.0576 288.536 54.393 287.789 55.8398 287.347C55.7574 288.112 55.6279 289.825 56.2283 290.802C56.6546 289.731 57.4388 288.841 58.4476 288.283C58.4064 289.778 58.3181 293.663 60.8787 295.759C60.8375 294.476 62.2032 293.451 62.3327 291.55C62.4622 289.649 62.162 288.672 61.5203 287.818C62.7624 288.159 64.6402 288.713 65.0229 290.249C65.1524 288.583 65.1524 287.859 64.7697 286.959C66.3885 287.176 70.4032 288.413 72.5812 291.362C72.1986 288.713 70.7446 285.681 67.5011 284.657C69.0375 284.657 72.4517 280.813 76.8549 283.032C75.4833 281.025 72.5812 278.376 67.2009 279.106C68.7373 277.693 74.459 272.784 76.8549 272.042C72.1187 271.948 67.5184 273.627 63.9574 276.751C64.34 274.532 64.2517 271.453 64.081 268.21C63.0155 268.598 60.967 269.534 60.1135 270.9C60.1547 268.545 59.7249 264.707 58.7478 263.247C57.0282 265.631 56.2523 268.567 56.5697 271.489L54.3446 268.369C54.3191 269.363 54.0525 270.337 53.5676 271.206C52.7611 272.454 52.6022 273.673 53.8501 275.433C51.16 273.031 48.0872 270.564 43.843 269.222C45.7973 271.912 50.2829 278.794 50.2829 278.794C50.2829 278.794 43.1719 277.581 40.417 284.68C41.9181 283.909 46.7863 281.99 50.4713 284.133C48.9231 285.328 47.3337 288.077 49.2645 293.151Z" fill="#A4D0F4"/>
<path d="M52.7674 282.491C52.7674 282.491 51.4017 283.668 50.5482 286.611C52.2553 286.523 55.1573 285.028 56.2287 283.58L56.1816 285.199L58.0182 283.28C58.0182 283.28 57.6768 285.669 58.9189 287.4C59.3015 286.464 61.1381 285.393 61.2205 283.727C61.9505 284.839 63.3161 285.31 64.7525 285.31C66.1888 285.31 67.06 285.652 67.4426 286.034C66.9776 284.369 66.2064 282.361 63.9107 281.678C65.5354 281.378 67.372 279.912 68.826 278.347C69.836 277.353 71.1378 276.709 72.5404 276.51C72.5404 276.51 67.4603 275.656 64.1285 278.217C65.0645 276.127 67.0718 271.901 67.0306 269.163C64.1991 270.876 61.8209 272.695 60.7084 274.503C60.626 272.413 60.1197 270.235 59.0896 269.163C57.8475 270.659 56.9115 272.795 57.0823 274.461C55.7012 272.062 53.6927 270.084 51.2722 268.74C51.2667 271.658 52.1608 274.507 53.8329 276.898L51.802 275.915L52.7439 277.793C52.7439 277.793 48.6233 275.185 44.2437 274.673C45.8862 277.518 48.3939 279.764 51.4017 281.084L49.6357 282.449L52.7674 282.491Z" fill="#EAF3FF"/>
<path d="M52.4789 278.635C51.7985 278.459 51.0978 278.374 50.395 278.382C50.9837 279.471 53.1499 280.207 53.1499 280.207L52.7967 281.166L54.91 280.784L54.5921 281.961L57.347 281.319L53.874 283.674V281.755L51.8372 281.784L52.3199 280.825C51.0331 280.147 49.9914 279.082 49.3413 277.781C50.4598 277.517 52.4789 278.635 52.4789 278.635Z" fill="#A4D0F4"/>
<path d="M57.9121 282.02L59.6428 283.433L60.7318 281.743L62.9098 282.084V280.672C63.4576 280.598 63.978 280.388 64.4226 280.059C64.8671 279.731 65.2215 279.296 65.4528 278.794C64.3638 279.435 64.0224 279.971 62.2917 280.183L62.227 281.296L60.4139 280.889L59.3838 282.149L57.9121 282.02Z" fill="#A4D0F4"/>
<path d="M53.7622 278.317C53.7622 278.317 54.2743 279.93 56.3523 279.459C56.835 280.589 57.5296 281.425 58.9483 279.824C57.8298 280.271 57.2176 280.413 56.7055 278.794C55.746 278.959 54.6864 279.118 53.7622 278.317Z" fill="#A4D0F4"/>
<path d="M55.3926 275.756C55.3926 275.756 55.84 278.111 57.7472 278.317C59.6545 278.523 60.6905 276.269 60.6905 276.269C60.6905 276.269 58.2888 277.387 58.0651 275.68C57.4764 276.428 56.511 277.069 55.3926 275.756Z" fill="#A4D0F4"/>
<path d="M57.606 275.079C57.6043 274.599 57.7463 274.128 58.0137 273.729C58.2812 273.329 58.6619 273.018 59.107 272.837C60.0724 273.608 60.1019 275.468 60.1019 275.468C61.017 274.595 62.1091 273.928 63.3042 273.514C63.3135 274.251 63.1539 274.981 62.8376 275.647C62.5213 276.314 62.0567 276.899 61.4793 277.358C62.8215 278.635 62.5978 280.154 59.9724 279.459C61.2556 279.182 62.1504 278.8 60.6434 277.693C61.4503 276.773 62.0523 275.691 62.4094 274.52C61.5104 274.983 60.6704 275.552 59.9076 276.216C59.8011 275.433 59.4676 274.698 58.9481 274.102C58.3418 274.091 57.606 275.079 57.606 275.079Z" fill="#A4D0F4"/>
<path d="M249.143 340.108C249.138 340.156 249.121 340.202 249.093 340.241C249.065 340.281 249.028 340.312 248.984 340.332L229.482 351.587C229.367 351.646 229.24 351.678 229.111 351.681C228.982 351.68 228.855 351.647 228.74 351.587L176.897 321.466C176.856 321.446 176.82 321.417 176.793 321.38C176.766 321.343 176.749 321.299 176.744 321.254V323.408C176.744 323.408 176.744 323.408 176.744 323.438C176.744 323.467 176.744 323.438 176.744 323.473V323.502L176.779 323.538L176.844 323.591L228.681 353.712C228.717 353.737 228.757 353.755 228.799 353.765H228.899H228.964H229.235H229.288H229.352L229.429 353.724L249.002 342.492C249.045 342.472 249.083 342.441 249.111 342.402C249.139 342.362 249.156 342.317 249.161 342.269L249.143 340.108Z" fill="#D4E9FF"/>
<path d="M176.903 321.03C176.691 321.154 176.691 321.348 176.903 321.466L228.74 351.587C228.855 351.648 228.984 351.68 229.114 351.68C229.244 351.68 229.373 351.648 229.488 351.587L249.002 340.332C249.208 340.208 249.214 340.014 249.002 339.896L197.171 309.775C197.055 309.714 196.927 309.682 196.797 309.682C196.666 309.682 196.538 309.714 196.423 309.775L176.903 321.03Z" fill="#EAF3FF"/>
<path d="M246.812 339.902C246.808 339.931 246.797 339.958 246.781 339.981C246.765 340.005 246.743 340.024 246.718 340.038L244.534 341.297C244.464 341.332 244.388 341.35 244.31 341.35C244.232 341.35 244.156 341.332 244.086 341.297L194.103 312.247C194.077 312.236 194.055 312.219 194.038 312.196C194.021 312.173 194.011 312.146 194.009 312.118V312.577H194.05L244.033 341.627C244.055 341.641 244.079 341.652 244.104 341.657H244.163H244.398H244.439H244.481L246.665 340.397C246.69 340.385 246.712 340.367 246.729 340.344C246.745 340.322 246.755 340.295 246.759 340.267L246.812 339.902Z" fill="#D4E9FF"/>
<path d="M194.104 311.988C194.076 311.997 194.052 312.014 194.034 312.037C194.017 312.06 194.008 312.089 194.008 312.118C194.008 312.147 194.017 312.175 194.034 312.198C194.052 312.222 194.076 312.239 194.104 312.247L244.087 341.297C244.156 341.332 244.233 341.35 244.31 341.35C244.388 341.35 244.465 341.332 244.534 341.297L246.718 340.038C246.745 340.028 246.768 340.01 246.785 339.986C246.801 339.962 246.81 339.934 246.81 339.905C246.81 339.876 246.801 339.848 246.785 339.825C246.768 339.801 246.745 339.783 246.718 339.773L196.735 310.728C196.666 310.694 196.589 310.676 196.511 310.676C196.434 310.676 196.357 310.694 196.288 310.728L194.104 311.988Z" fill="#F8FBFF"/>
<path d="M243.074 342.063C243.072 342.091 243.062 342.118 243.045 342.141C243.029 342.164 243.006 342.181 242.98 342.192L240.802 343.452C240.731 343.487 240.654 343.505 240.575 343.505C240.497 343.505 240.419 343.487 240.349 343.452L190.366 314.402C190.341 314.39 190.32 314.371 190.304 314.349C190.289 314.326 190.28 314.3 190.277 314.272V314.743C190.288 314.756 190.303 314.766 190.319 314.773L240.296 343.817L240.366 343.846H240.431H240.631H240.666H240.702H240.749L242.927 342.587C242.953 342.576 242.976 342.558 242.992 342.535C243.009 342.512 243.019 342.485 243.021 342.457L243.074 342.063Z" fill="#D4E9FF"/>
<path d="M190.372 314.143C190.242 314.213 190.242 314.331 190.372 314.402L240.354 343.452C240.425 343.487 240.502 343.505 240.581 343.505C240.66 343.505 240.737 343.487 240.808 343.452L242.986 342.192C243.013 342.184 243.038 342.167 243.055 342.143C243.072 342.12 243.082 342.092 243.082 342.063C243.082 342.034 243.072 342.005 243.055 341.982C243.038 341.959 243.013 341.942 242.986 341.933L193.003 312.883C192.933 312.848 192.857 312.83 192.779 312.83C192.701 312.83 192.625 312.848 192.555 312.883L190.372 314.143Z" fill="#F8FBFF"/>
<path d="M192.55 317.21V317.645C192.576 317.634 192.599 317.617 192.615 317.594C192.632 317.571 192.642 317.544 192.644 317.516V317.08C192.642 317.108 192.632 317.135 192.615 317.158C192.599 317.181 192.576 317.199 192.55 317.21Z" fill="url(#paint2_linear)"/>
<path d="M192.644 317.08C192.642 317.108 192.632 317.135 192.615 317.158C192.598 317.181 192.576 317.199 192.55 317.21L190.372 318.463C190.302 318.5 190.224 318.518 190.145 318.518C190.066 318.518 189.989 318.5 189.918 318.463L186.634 316.556C186.608 316.545 186.585 316.528 186.568 316.505C186.552 316.482 186.542 316.455 186.54 316.427V316.862C186.54 316.88 186.54 316.88 186.54 316.898V316.898H186.581L189.865 318.811H189.936H189.995H190.23H190.272H190.319L192.497 317.551C192.523 317.54 192.545 317.522 192.562 317.5C192.579 317.477 192.589 317.45 192.591 317.421L192.644 317.08Z" fill="#D4E9FF"/>
<path d="M186.635 316.297C186.511 316.374 186.511 316.491 186.635 316.562L189.919 318.469C189.989 318.505 190.067 318.524 190.146 318.524C190.225 318.524 190.303 318.505 190.373 318.469L192.551 317.21C192.578 317.201 192.603 317.184 192.62 317.161C192.637 317.137 192.647 317.109 192.647 317.08C192.647 317.051 192.637 317.023 192.62 317C192.603 316.976 192.578 316.959 192.551 316.951L189.266 315.043C189.197 315.006 189.121 314.986 189.042 314.986C188.964 314.986 188.887 315.006 188.819 315.043L186.635 316.297Z" fill="#F8FBFF"/>
<path d="M188.817 319.37V319.8C188.843 319.788 188.865 319.77 188.881 319.747C188.898 319.724 188.908 319.698 188.912 319.67V319.235C188.909 319.263 188.898 319.291 188.882 319.314C188.865 319.338 188.843 319.357 188.817 319.37Z" fill="url(#paint3_linear)"/>
<path d="M188.911 319.235C188.909 319.263 188.898 319.291 188.882 319.314C188.865 319.338 188.843 319.357 188.817 319.37L186.633 320.63C186.564 320.664 186.487 320.682 186.41 320.682C186.332 320.682 186.255 320.664 186.186 320.63L182.895 318.717C182.871 318.704 182.85 318.686 182.834 318.663C182.819 318.641 182.809 318.614 182.807 318.587V319.058C182.821 319.061 182.835 319.061 182.848 319.058L186.133 320.971C186.155 320.984 186.179 320.994 186.204 321.001H186.263H186.498H186.539H186.58L188.764 319.741C188.79 319.73 188.813 319.712 188.83 319.689C188.846 319.666 188.856 319.639 188.859 319.611L188.911 319.235Z" fill="#D4E9FF"/>
<path d="M182.902 318.463C182.778 318.534 182.772 318.652 182.902 318.722L186.192 320.636C186.262 320.67 186.338 320.688 186.416 320.688C186.494 320.688 186.57 320.67 186.64 320.636L188.823 319.376C188.851 319.366 188.874 319.348 188.89 319.324C188.907 319.3 188.916 319.272 188.916 319.243C188.916 319.215 188.907 319.186 188.89 319.163C188.874 319.139 188.851 319.121 188.823 319.111L185.533 317.204C185.463 317.169 185.387 317.151 185.309 317.151C185.232 317.151 185.155 317.169 185.086 317.204L182.902 318.463Z" fill="#F8FBFF"/>
<path d="M191.767 319.541V319.97C191.776 319.983 191.788 319.993 191.802 320V319.57H191.761" fill="#6B6B6B"/>
<path d="M191.808 319.57V320L191.814 320.006V319.57H191.808Z" fill="#6E6E6E"/>
<path d="M234.185 341.221C234.182 341.249 234.172 341.275 234.155 341.298C234.139 341.321 234.117 341.339 234.091 341.35L231.931 342.598C231.861 342.633 231.785 342.651 231.707 342.651C231.63 342.651 231.553 342.633 231.483 342.598L191.837 319.558V319.994L231.483 343.028C231.504 343.044 231.528 343.056 231.554 343.063H231.613H231.813H231.848H231.884H231.931L234.115 341.81C234.14 341.796 234.162 341.777 234.178 341.753C234.194 341.73 234.205 341.703 234.209 341.674L234.185 341.221Z" fill="#D4E9FF"/>
<path d="M191.814 319.311C191.786 319.32 191.762 319.337 191.745 319.36C191.728 319.383 191.718 319.412 191.718 319.441C191.718 319.47 191.728 319.498 191.745 319.521C191.762 319.545 191.786 319.562 191.814 319.57L231.46 342.598C231.53 342.633 231.606 342.651 231.684 342.651C231.762 342.651 231.838 342.633 231.908 342.598L234.092 341.339C234.119 341.33 234.144 341.313 234.161 341.29C234.178 341.266 234.187 341.238 234.187 341.209C234.187 341.18 234.178 341.152 234.161 341.129C234.144 341.105 234.119 341.088 234.092 341.08L194.445 318.051C194.375 318.017 194.297 317.999 194.219 317.999C194.14 317.999 194.063 318.017 193.992 318.051L191.814 319.311Z" fill="#F8FBFF"/>
<path d="M233.285 343.664V344.099L233.326 344.129V343.693C233.31 343.687 233.296 343.677 233.285 343.664Z" fill="#6B6B6B"/>
<path d="M233.326 343.693V344.129H233.332L233.326 343.699V343.693Z" fill="#6E6E6E"/>
<path d="M239.342 344.217C239.339 344.245 239.328 344.272 239.312 344.294C239.295 344.317 239.273 344.335 239.248 344.347L237.064 345.606C236.995 345.641 236.918 345.659 236.84 345.659C236.763 345.659 236.686 345.641 236.617 345.606L233.326 343.699C233.301 343.687 233.28 343.669 233.265 343.646C233.249 343.623 233.24 343.597 233.238 343.57V343.999C233.24 344.027 233.249 344.053 233.265 344.076C233.28 344.098 233.301 344.117 233.326 344.129L236.617 346.042H236.687H236.746H236.946H236.982H237.023H237.064L239.248 344.782C239.275 344.771 239.297 344.752 239.314 344.728C239.331 344.704 239.34 344.676 239.342 344.647V344.217Z" fill="#D4E9FF"/>
<path d="M233.332 343.434C233.202 343.511 233.202 343.623 233.332 343.699L236.623 345.606C236.692 345.641 236.769 345.659 236.846 345.659C236.924 345.659 237.001 345.641 237.07 345.606L239.254 344.347C239.282 344.338 239.306 344.321 239.323 344.298C239.34 344.274 239.35 344.246 239.35 344.217C239.35 344.188 239.34 344.16 239.323 344.137C239.306 344.113 239.282 344.096 239.254 344.088L235.963 342.18C235.894 342.144 235.817 342.125 235.74 342.125C235.662 342.125 235.585 342.144 235.516 342.18L233.332 343.434Z" fill="#F8FBFF"/>
<path d="M235.604 346.807V346.372C235.601 346.4 235.591 346.428 235.575 346.451C235.558 346.475 235.536 346.494 235.51 346.507L233.332 347.767C233.262 347.803 233.184 347.822 233.105 347.822C233.027 347.822 232.949 347.803 232.879 347.767L188.076 321.725C188.051 321.712 188.03 321.694 188.015 321.671C187.999 321.649 187.99 321.622 187.988 321.595V322.031V322.09C188.001 322.092 188.015 322.092 188.029 322.09L232.832 348.126H232.902H232.967H233.203H233.238H233.285L235.463 346.866C235.49 346.87 235.517 346.866 235.541 346.856C235.566 346.845 235.588 346.829 235.604 346.807Z" fill="#D4E9FF"/>
<path d="M188.076 321.466C188.048 321.474 188.024 321.491 188.007 321.515C187.989 321.538 187.98 321.566 187.98 321.595C187.98 321.624 187.989 321.652 188.007 321.676C188.024 321.699 188.048 321.716 188.076 321.725L232.879 347.761C232.949 347.797 233.026 347.816 233.105 347.816C233.184 347.816 233.262 347.797 233.332 347.761L235.51 346.501C235.634 346.425 235.639 346.313 235.51 346.236L190.725 320.229C190.655 320.195 190.579 320.177 190.501 320.177C190.423 320.177 190.347 320.195 190.277 320.229L188.076 321.466Z" fill="#F8FBFF"/>
<path d="M230.865 349.109C230.863 349.137 230.853 349.164 230.837 349.187C230.82 349.21 230.797 349.228 230.771 349.239L229.347 350.063C229.277 350.1 229.199 350.12 229.12 350.12C229.041 350.12 228.963 350.1 228.893 350.063L178.911 321.018C178.886 321.006 178.865 320.988 178.849 320.965C178.834 320.942 178.825 320.916 178.822 320.889V321.407L178.863 321.436L228.846 350.486L228.917 350.516H228.982H229.211H229.253H229.3L230.754 349.662C230.78 349.65 230.803 349.631 230.821 349.607C230.838 349.584 230.85 349.556 230.854 349.527L230.865 349.109Z" fill="#D4E9FF"/>
<path d="M178.91 320.759C178.883 320.768 178.858 320.785 178.841 320.808C178.824 320.831 178.814 320.86 178.814 320.889C178.814 320.918 178.824 320.946 178.841 320.969C178.858 320.993 178.883 321.01 178.91 321.018L228.893 350.063C228.963 350.1 229.041 350.12 229.12 350.12C229.199 350.12 229.277 350.1 229.347 350.063L230.771 349.238C230.901 349.168 230.901 349.05 230.771 348.979L180.794 319.935C180.724 319.898 180.647 319.878 180.567 319.878C180.488 319.878 180.41 319.898 180.341 319.935L178.91 320.759Z" fill="#F8FBFF"/>
<path d="M266.15 359.299C267.327 358.622 270.547 357.221 270.712 357.144C272.338 356.355 274.176 356.113 275.951 356.455H275.998C276.169 356.497 276.157 356.797 275.998 357.044C275.236 358.034 274.296 358.873 273.225 359.516L259.41 367.493C258.583 368.022 257.611 368.279 256.631 368.229C256.449 368.229 256.437 367.917 256.631 367.675L256.702 367.581C258.132 365.552 259.877 363.764 261.87 362.283C261.988 362.148 265.061 359.928 266.15 359.299Z" fill="#D4E9FF"/>
<path d="M212.941 323.173C212.941 323.173 210.739 305.513 228.464 273.467C246.188 241.42 242.827 196.682 243.221 170.034C243.395 156.703 247.816 143.776 255.842 133.131" stroke="#2B76C1" stroke-width="2" stroke-miterlimit="10" stroke-linecap="round"/>
<g opacity="0.1">
<path opacity="0.1" d="M101.42 330.378C100.443 330.967 100.443 331.855 101.42 332.421L221.1 401.976C221.647 402.255 222.252 402.4 222.866 402.4C223.48 402.4 224.085 402.255 224.632 401.976L229.93 398.909C230.907 398.321 230.907 397.426 229.93 396.861L110.267 327.293C109.72 327.015 109.115 326.87 108.501 326.87C107.888 326.87 107.282 327.015 106.735 327.293L101.42 330.378Z" fill="#3282CC"/>
</g>
<path d="M108.242 210.151C108.58 209.995 108.954 209.932 109.324 209.97C109.695 210.007 110.049 210.143 110.349 210.362L228.457 278.558C229.316 279.115 230.03 279.867 230.542 280.753C231.053 281.64 231.348 282.634 231.401 283.656L231.13 377.329C231.167 377.693 231.106 378.06 230.955 378.393C230.805 378.726 230.568 379.013 230.271 379.225L224.384 382.633C224.683 382.422 224.92 382.135 225.071 381.802C225.222 381.469 225.281 381.101 225.243 380.737L225.508 287.094C225.454 286.073 225.16 285.08 224.648 284.195C224.137 283.31 223.423 282.558 222.565 282.002L104.48 213.783C104.18 213.562 103.826 213.426 103.455 213.39C103.084 213.354 102.71 213.418 102.373 213.577L108.242 210.151Z" fill="#448CE5"/>
<path d="M104.481 213.783C102.85 212.841 101.537 213.588 101.537 215.466L101.249 309.11C101.302 310.132 101.596 311.126 102.108 312.012C102.62 312.898 103.334 313.651 104.192 314.207L222.306 382.397C223.937 383.339 225.25 382.58 225.25 380.708L225.515 287.064C225.461 286.044 225.166 285.05 224.654 284.165C224.143 283.28 223.429 282.529 222.571 281.973L104.481 213.783Z" fill="#EAF3FF"/>
<path d="M211.356 296.141C212.438 295.512 212.435 293.487 211.349 291.617C210.262 289.748 208.505 288.743 207.422 289.371C206.34 290 206.343 292.025 207.43 293.895C208.516 295.764 210.274 296.77 211.356 296.141Z" fill="#D4E9FF"/>
<path d="M203.159 290.981C204.241 290.352 204.238 288.327 203.151 286.458C202.065 284.588 200.307 283.583 199.225 284.212C198.143 284.841 198.146 286.866 199.232 288.735C200.319 290.604 202.076 291.61 203.159 290.981Z" fill="#D4E9FF"/>
<path d="M194.95 285.824C196.032 285.195 196.029 283.17 194.943 281.301C193.857 279.431 192.099 278.426 191.017 279.055C189.934 279.684 189.938 281.709 191.024 283.578C192.11 285.447 193.868 286.453 194.95 285.824Z" fill="#D4E9FF"/>
<path d="M155.088 292.097C154.364 291.68 153.775 292.021 153.775 292.851C153.799 293.303 153.929 293.744 154.155 294.137C154.381 294.529 154.697 294.863 155.076 295.111L172.235 305.018C172.959 305.436 173.542 305.095 173.548 304.265C173.527 303.808 173.397 303.362 173.17 302.965C172.943 302.568 172.624 302.231 172.241 301.981L155.088 292.097Z" fill="#D4E9FF"/>
<path d="M149.378 278.293C148.654 277.876 148.059 278.205 148.059 279.035C148.084 279.489 148.216 279.93 148.443 280.324C148.67 280.718 148.986 281.052 149.366 281.302L178.004 297.86C178.728 298.278 179.317 297.943 179.323 297.107C179.297 296.654 179.165 296.214 178.938 295.821C178.711 295.429 178.395 295.095 178.016 294.846L149.378 278.293Z" fill="#D4E9FF"/>
<path d="M158.549 305.289C157.825 304.871 157.23 305.207 157.23 306.043C157.255 306.497 157.386 306.938 157.613 307.332C157.84 307.726 158.157 308.06 158.537 308.309L168.709 314.196C169.433 314.614 170.028 314.278 170.028 313.448C170.005 312.994 169.874 312.552 169.647 312.158C169.42 311.764 169.102 311.429 168.721 311.182L158.549 305.289Z" fill="#D4E9FF"/>
<g opacity="0.1">
<path opacity="0.1" d="M484.741 515.287C499.709 515.287 511.843 508.324 511.843 499.735C511.843 491.145 499.709 484.182 484.741 484.182C469.773 484.182 457.64 491.145 457.64 499.735C457.64 508.324 469.773 515.287 484.741 515.287Z" fill="#3282CC"/>
</g>
<path d="M511.679 456.857H457.799L466.576 498.775H466.688C467.676 503.996 475.376 508.058 484.742 508.058C494.107 508.058 501.883 503.937 502.808 498.693L511.679 456.857Z" fill="#D4E9FF"/>
<path d="M484.741 470.714C499.709 470.714 511.843 463.751 511.843 455.161C511.843 446.572 499.709 439.609 484.741 439.609C469.773 439.609 457.64 446.572 457.64 455.161C457.64 463.751 469.773 470.714 484.741 470.714Z" fill="#F8FBFF"/>
<path d="M484.742 468.053C497.151 468.053 507.211 462.281 507.211 455.161C507.211 448.042 497.151 442.27 484.742 442.27C472.332 442.27 462.272 448.042 462.272 455.161C462.272 462.281 472.332 468.053 484.742 468.053Z" fill="#448CE5"/>
<path d="M486.143 379.042C507.835 374.38 515.993 357.703 518.148 344.264C519.472 336.096 522.106 328.195 525.948 320.865C470.543 335.111 486.143 379.042 486.143 379.042Z" fill="#EAF3FF"/>
<path d="M518.548 327.588C518.548 327.588 502.466 352.9 495.108 365.774C487.75 378.648 482.022 385.494 481.663 421.885C481.304 458.275 481.663 456.845 481.663 456.845H479.308C479.308 456.845 479.19 438.143 479.308 422.008C479.426 405.873 480.627 384.835 489.527 370.012C498.428 355.19 518.548 327.588 518.548 327.588Z" fill="#A4D0F4"/>
<path d="M486.142 379.042C507.834 374.38 515.993 357.703 518.148 344.264C514.08 359.363 505.686 364.52 495.826 368.281C485.966 372.043 486.142 379.042 486.142 379.042Z" fill="#A4D0F4"/>
<path d="M488.915 404.549C514.675 404.06 527.678 386.889 533.117 372.031C536.448 363.018 541.206 354.598 547.21 347.096C480.933 351.022 488.915 404.549 488.915 404.549Z" fill="#EAF3FF"/>
<path d="M490.869 456.845C490.869 456.845 486.266 435.606 488.362 414.267C490.604 391.498 536.231 354.295 536.231 354.295C536.231 354.295 492.306 383.339 486.566 412.384C484.059 426.376 486.566 456.845 486.566 456.845H490.869Z" fill="#A4D0F4"/>
<path d="M488.915 404.549C514.675 404.06 527.678 386.889 533.117 372.031C524.876 388.726 518.495 389.261 505.586 392.305C492.677 395.348 488.915 404.549 488.915 404.549Z" fill="#A4D0F4"/>
<path d="M482.993 404.549C457.233 404.06 444.23 386.889 438.791 372.031C435.46 363.018 430.702 354.598 424.698 347.096C491.004 351.022 482.993 404.549 482.993 404.549Z" fill="#EAF3FF"/>
<path d="M481.039 456.845C481.039 456.845 485.642 435.606 483.546 414.267C481.309 391.498 435.677 354.295 435.677 354.295C435.677 354.295 479.602 383.339 485.342 412.384C487.849 426.376 485.342 456.845 485.342 456.845H481.039Z" fill="#A4D0F4"/>
<path d="M482.993 404.549C457.234 404.06 444.23 386.889 438.791 372.031C447.032 388.726 453.413 389.261 466.328 392.305C479.244 395.348 482.993 404.549 482.993 404.549Z" fill="#A4D0F4"/>
<path d="M488.685 441.069V456.857H489.58L489.763 441.157C489.763 441.157 500.517 424.757 518.801 413.82C537.085 402.883 546.056 395.931 550 388.29C550 388.29 539.404 394.277 519.525 399.298C499.646 404.319 505.656 412.566 498.593 418.123C491.529 423.68 483.664 427.807 488.685 441.069Z" fill="#EAF3FF"/>
<path d="M489.762 441.157C489.762 441.157 500.517 424.757 518.801 413.82C537.085 402.883 546.056 395.931 550 388.29C541.988 398.562 532.193 402.288 520.479 403.595C508.764 404.902 509.365 416.628 498.592 421.767C487.82 426.906 489.762 441.157 489.762 441.157Z" fill="#A4D0F4"/>
<path d="M482.905 441.069V456.857H482.004L481.828 441.157C481.828 441.157 471.067 424.757 452.783 413.826C434.5 402.895 425.534 395.937 421.584 388.296C421.584 388.296 432.18 394.283 452.065 399.304C471.95 404.325 465.922 412.572 472.98 418.141C480.038 423.71 487.926 427.807 482.905 441.069Z" fill="#EAF3FF"/>
<path d="M481.828 441.157C481.828 441.157 471.067 424.757 452.783 413.826C434.5 402.895 425.534 395.937 421.584 388.296C429.596 398.568 439.397 402.294 451.112 403.601C462.826 404.908 462.225 416.628 472.98 421.767C483.735 426.906 481.828 441.157 481.828 441.157Z" fill="#A4D0F4"/>
<path d="M496.497 447.456V456.874H497.033L497.139 447.526C501.745 440.988 507.628 435.451 514.434 431.25C525.324 424.734 530.657 420.595 533.006 416.051C533.006 416.051 526.713 419.583 514.863 422.603C503.014 425.623 506.622 430.503 502.407 433.787C498.192 437.072 493.507 439.556 496.497 447.456Z" fill="#EAF3FF"/>
<path d="M497.138 447.509C501.744 440.97 507.628 435.434 514.433 431.233C525.323 424.716 530.657 420.578 533.005 416.033C528.237 422.144 522.409 424.363 515.428 425.146C508.447 425.929 508.811 432.904 502.407 435.965C496.002 439.026 497.138 447.509 497.138 447.509Z" fill="#A4D0F4"/>
<path d="M472.692 447.456V456.874H472.156L472.103 447.509C467.497 440.97 461.614 435.433 454.808 431.232C443.894 424.716 438.549 420.578 436.195 416.033C436.195 416.033 442.493 419.565 454.343 422.585C466.193 425.605 462.584 430.485 466.793 433.77C471.002 437.054 475.705 439.556 472.692 447.456Z" fill="#EAF3FF"/>
<path d="M472.103 447.509C467.497 440.97 461.614 435.434 454.808 431.233C443.894 424.716 438.549 420.578 436.195 416.033C440.963 422.144 446.791 424.363 453.772 425.146C460.754 425.929 460.389 432.904 466.793 435.965C473.198 439.026 472.103 447.509 472.103 447.509Z" fill="#A4D0F4"/>
<path d="M479.614 458.958C480.661 458.958 481.51 458.11 481.51 457.063C481.51 456.016 480.661 455.167 479.614 455.167C478.567 455.167 477.719 456.016 477.719 457.063C477.719 458.11 478.567 458.958 479.614 458.958Z" fill="#A4D0F4"/>
<path d="M489.168 457.322C489.877 457.322 490.451 456.747 490.451 456.039C490.451 455.33 489.877 454.755 489.168 454.755C488.459 454.755 487.885 455.33 487.885 456.039C487.885 456.747 488.459 457.322 489.168 457.322Z" fill="#A4D0F4"/>
<path d="M486.454 457.934C487.501 457.934 488.35 457.085 488.35 456.039C488.35 454.992 487.501 454.143 486.454 454.143C485.407 454.143 484.559 454.992 484.559 456.039C484.559 457.085 485.407 457.934 486.454 457.934Z" fill="#F9FAFF"/>
<path d="M490.751 464.027C491.798 464.027 492.647 463.178 492.647 462.131C492.647 461.084 491.798 460.236 490.751 460.236C489.705 460.236 488.856 461.084 488.856 462.131C488.856 463.178 489.705 464.027 490.751 464.027Z" fill="#A4D0F4"/>
<path d="M497.609 458.34C498.656 458.34 499.505 457.491 499.505 456.445C499.505 455.398 498.656 454.549 497.609 454.549C496.563 454.549 495.714 455.398 495.714 456.445C495.714 457.491 496.563 458.34 497.609 458.34Z" fill="#A4D0F4"/>
<path d="M470.243 457.728C470.952 457.728 471.526 457.153 471.526 456.445C471.526 455.736 470.952 455.161 470.243 455.161C469.534 455.161 468.959 455.736 468.959 456.445C468.959 457.153 469.534 457.728 470.243 457.728Z" fill="#A4D0F4"/>
<path d="M472.456 458.958C473.503 458.958 474.352 458.11 474.352 457.063C474.352 456.016 473.503 455.167 472.456 455.167C471.409 455.167 470.561 456.016 470.561 457.063C470.561 458.11 471.409 458.958 472.456 458.958Z" fill="#F9FAFF"/>
<path d="M491.27 458.14C491.978 458.14 492.553 457.565 492.553 456.857C492.553 456.148 491.978 455.573 491.27 455.573C490.561 455.573 489.986 456.148 489.986 456.857C489.986 457.565 490.561 458.14 491.27 458.14Z" fill="#F9FAFF"/>
<path d="M486.607 459.217C487.316 459.217 487.891 458.643 487.891 457.934C487.891 457.225 487.316 456.651 486.607 456.651C485.899 456.651 485.324 457.225 485.324 457.934C485.324 458.643 485.899 459.217 486.607 459.217Z" fill="#A4D0F4"/>
<path d="M496.391 459.623C497.1 459.623 497.674 459.049 497.674 458.34C497.674 457.631 497.1 457.057 496.391 457.057C495.682 457.057 495.108 457.631 495.108 458.34C495.108 459.049 495.682 459.623 496.391 459.623Z" fill="#F9FAFF"/>
<path d="M493.83 454.178C494.539 454.178 495.113 453.604 495.113 452.895C495.113 452.186 494.539 451.612 493.83 451.612C493.121 451.612 492.547 452.186 492.547 452.895C492.547 453.604 493.121 454.178 493.83 454.178Z" fill="#A4D0F4"/>
<path d="M481.945 458.346C482.654 458.346 483.229 457.772 483.229 457.063C483.229 456.354 482.654 455.78 481.945 455.78C481.237 455.78 480.662 456.354 480.662 457.063C480.662 457.772 481.237 458.346 481.945 458.346Z" fill="#F9FAFF"/>
<path d="M482.793 464.321C483.502 464.321 484.076 463.746 484.076 463.038C484.076 462.329 483.502 461.754 482.793 461.754C482.084 461.754 481.51 462.329 481.51 463.038C481.51 463.746 482.084 464.321 482.793 464.321Z" fill="#A4D0F4"/>
<path d="M476.436 452.895C477.144 452.895 477.719 452.32 477.719 451.612C477.719 450.903 477.144 450.328 476.436 450.328C475.727 450.328 475.152 450.903 475.152 451.612C475.152 452.32 475.727 452.895 476.436 452.895Z" fill="#A4D0F4"/>
<path d="M476.17 463.038C476.879 463.038 477.454 462.463 477.454 461.754C477.454 461.046 476.879 460.471 476.17 460.471C475.462 460.471 474.887 461.046 474.887 461.754C474.887 462.463 475.462 463.038 476.17 463.038Z" fill="#A4D0F4"/>
<path d="M176.373 23.8877C176.706 23.7311 177.074 23.6671 177.44 23.7023C177.805 23.7375 178.155 23.8707 178.451 24.0879L234.285 56.3051C235.132 56.8555 235.837 57.5984 236.342 58.473C236.848 59.3477 237.139 60.3294 237.193 61.3381L237.052 111.556C237.06 111.628 237.05 111.701 237.021 111.767C236.992 111.833 236.946 111.891 236.887 111.933L233.962 113.611C234.02 113.568 234.066 113.511 234.095 113.445C234.124 113.379 234.135 113.306 234.126 113.234L234.268 63.0158C234.209 62.004 233.912 61.0205 233.401 60.1456C232.889 59.2708 232.178 58.5296 231.324 57.9827L175.555 25.7714C175.258 25.556 174.909 25.4239 174.543 25.3887C174.178 25.3535 173.81 25.4165 173.477 25.5713L176.373 23.8877Z" fill="#D4E9FF"/>
<path d="M175.555 25.7714C173.942 24.8414 172.612 25.589 172.612 27.4373L172.512 63.7928C172.565 64.8033 172.856 65.787 173.361 66.6637C173.866 67.5404 174.572 68.2853 175.42 68.8376L226.804 98.5L233.049 113.022C233.145 113.264 233.313 113.47 233.532 113.611C233.832 113.787 234.121 113.699 234.121 113.281L234.262 63.0629C234.204 62.0511 233.906 61.0676 233.395 60.1927C232.883 59.3179 232.172 58.5767 231.319 58.0298L175.555 25.7714Z" fill="#F8FBFF"/>
<path d="M205.735 51.4603L205.724 53.9562L219.28 61.7795L219.292 59.2895L205.735 51.4603Z" fill="#D4E9FF"/>
<path d="M205.735 58.7421L205.724 61.2321L226.515 73.2995L226.527 70.8036L205.735 58.7421Z" fill="#D4E9FF"/>
<path d="M205.735 66.0178L205.724 68.5137L219.893 76.7196L219.904 74.2296L205.735 66.0178Z" fill="#D4E9FF"/>
<path d="M205.735 73.2996L205.724 75.7896L229.841 89.7172L229.853 87.2213L205.735 73.2996Z" fill="#D4E9FF"/>
<path d="M197.794 69.1258C202.303 66.5058 202.291 58.0721 197.769 50.2886C193.246 42.5051 185.924 38.3192 181.415 40.9391C176.907 43.5591 176.918 51.9928 181.441 59.7763C185.964 67.5598 193.285 71.7457 197.794 69.1258Z" fill="#94C2FC"/>
<path d="M189.6 58.6538C192.491 60.3138 198.118 65.3409 198.377 68.7198C198.248 68.8245 198.112 68.9209 197.971 69.0083L197.871 69.0671L197.765 69.1319L197.683 69.179C196.052 70.0796 193.951 70.162 191.602 69.2908C191.366 69.2025 191.131 69.1025 190.895 68.9965L190.778 68.9435H190.725L190.636 68.9023L190.572 68.8729L190.489 68.8317L190.413 68.7964L190.336 68.7552L190.26 68.7198L190.183 68.6786L190.095 68.6374L190.024 68.5962L189.936 68.5491L189.871 68.5138C189.836 68.4975 189.802 68.4778 189.771 68.4549H189.712L189.559 68.3666L189.4 68.2725H189.341L189.241 68.2077L189.171 68.1665L189.088 68.1135L189.012 68.0664L188.935 68.0193L188.853 67.9663L188.782 67.9193L188.694 67.8604L188.629 67.8192L188.541 67.7603L188.482 67.7191L188.388 67.6544L188.335 67.619L188.229 67.5425C185.437 65.4742 183.112 62.8406 181.406 59.8135C181.165 59.3896 180.959 59.0188 180.765 58.6361C181.053 55.4927 186.728 56.9938 189.6 58.6538Z" fill="#EAF3FF"/>
<path d="M189.636 45.3265C190.915 46.1585 191.98 47.2811 192.743 48.6028C193.506 49.9245 193.946 51.4079 194.027 52.932C194.027 55.7281 192.037 56.8524 189.606 55.4514C188.326 54.6202 187.26 53.4978 186.496 52.1761C185.731 50.8543 185.29 49.3706 185.209 47.846C185.221 45.0322 187.193 43.9079 189.636 45.3265Z" fill="#EAF3FF"/>
<path d="M124.401 55.0217C124.401 55.2749 124.401 55.528 124.401 55.7752C124.401 55.528 124.401 55.2749 124.401 55.0217C124.397 46.5961 124.397 46.5961 124.401 55.0217Z" fill="white"/>
<path d="M125.702 61.4204C125.89 61.856 126.096 62.2799 126.29 62.6978C126.09 62.2857 125.89 61.8619 125.702 61.4204Z" fill="white"/>
<path d="M335.723 106.994L329.436 114.252C329.413 114.279 329.385 114.301 329.354 114.317L332.256 112.634C332.284 112.616 332.31 112.594 332.332 112.569L338.625 105.311L335.723 106.994Z" fill="#D4E9FF"/>
<path d="M390.103 91.9247L334.358 59.7193C334.061 59.505 333.713 59.3735 333.349 59.3383C332.984 59.3031 332.618 59.3655 332.285 59.5192L329.36 61.2204C329.691 61.0667 330.057 61.0042 330.42 61.0394C330.783 61.0745 331.131 61.2061 331.426 61.4205L387.207 93.5965C388.054 94.1466 388.759 94.8895 389.263 95.7643C389.767 96.6391 390.057 97.621 390.109 98.6295L390.003 134.967C390.042 135.327 389.984 135.69 389.835 136.019C389.686 136.348 389.451 136.631 389.156 136.839L392.052 135.156C392.347 134.947 392.582 134.664 392.732 134.335C392.881 134.006 392.941 133.643 392.905 133.284L393.005 96.946C392.952 95.9395 392.661 94.96 392.157 94.0873C391.652 93.2147 390.949 92.4737 390.103 91.9247Z" fill="#D4E9FF"/>
<path d="M387.207 93.5965C388.053 94.1466 388.758 94.8894 389.262 95.7643C389.767 96.6391 390.057 97.621 390.109 98.6295L390.003 134.967C390.003 136.822 388.696 137.563 387.059 136.633L335.699 106.983L329.412 114.241C329.346 114.301 329.26 114.334 329.171 114.334C329.082 114.334 328.996 114.301 328.929 114.241C328.758 114.133 328.614 113.985 328.512 113.81C328.409 113.634 328.351 113.437 328.341 113.234L328.482 63.0393C328.482 61.1909 329.801 60.4433 331.425 61.3675L387.207 93.5965Z" fill="#F8FBFF"/>
<path d="M361.577 87.0977L361.565 89.5877L375.122 97.4168L375.134 94.9209L361.577 87.0977Z" fill="#D4E9FF"/>
<path d="M361.577 94.3735L361.565 96.8694L382.35 108.931L382.368 106.441L361.577 94.3735Z" fill="#D4E9FF"/>
<path d="M361.577 101.655L361.565 104.145L375.728 112.357L375.746 109.861L361.577 101.655Z" fill="#D4E9FF"/>
<path d="M361.577 108.931L361.565 111.427L385.682 125.349L385.694 122.859L361.577 108.931Z" fill="#D4E9FF"/>
<path d="M353.639 104.766C358.148 102.146 358.137 93.7123 353.614 85.9287C349.091 78.1452 341.769 73.9593 337.261 76.5793C332.752 79.1992 332.763 87.6329 337.286 95.4165C341.809 103.2 349.13 107.386 353.639 104.766Z" fill="#94C2FC"/>
<path d="M345.442 94.2911C348.314 95.9512 353.959 100.972 354.23 104.357C354.101 104.455 353.965 104.549 353.824 104.64L353.724 104.704L353.618 104.763L353.536 104.81C351.905 105.717 349.804 105.794 347.455 104.922C347.219 104.834 346.984 104.74 346.748 104.634L346.631 104.581H346.578L346.489 104.54L346.425 104.51L346.342 104.469L346.266 104.434L346.189 104.392L346.113 104.351L346.036 104.316L345.948 104.269L345.877 104.234L345.789 104.186L345.724 104.151L345.624 104.092H345.565L345.406 104.004C345.357 103.969 345.306 103.938 345.253 103.91L345.194 103.874L345.094 103.816L345.024 103.774L344.941 103.721L344.865 103.674L344.782 103.621L344.706 103.568L344.635 103.521L344.547 103.468L344.482 103.421L344.394 103.362L344.335 103.321C344.301 103.303 344.27 103.281 344.241 103.256H344.188L344.082 103.18C341.28 101.086 338.955 98.4215 337.259 95.3625C337.018 94.9387 336.812 94.5678 336.618 94.1852C336.894 91.1242 342.598 92.6311 345.442 94.2911Z" fill="#EAF3FF"/>
<path d="M345.477 80.9462C346.757 81.7794 347.821 82.9031 348.585 84.2258C349.348 85.5485 349.787 87.0327 349.868 88.5575C349.868 91.3537 347.879 92.478 345.448 91.0711C344.166 90.2405 343.1 89.1184 342.336 87.7965C341.571 86.4746 341.131 84.9905 341.05 83.4657C341.062 80.646 343.04 79.5452 345.477 80.9462Z" fill="#EAF3FF"/>
<path d="M237.353 33.8772C237.605 34.0384 237.791 34.285 237.876 34.5718L239.054 38.5394L242.15 40.6173C242.394 40.7953 242.567 41.0539 242.639 41.3473C242.709 41.6357 242.639 41.8653 242.468 41.9359L240.172 42.972L240.843 46.8336C240.896 47.1161 240.808 47.328 240.62 47.3751C240.505 47.3978 240.387 47.3746 240.29 47.3104C240.179 47.2424 240.081 47.1546 240.001 47.0514L237.37 43.7196V33.8713L237.353 33.8772Z" fill="#D4E9FF"/>
<path d="M234.674 43.9786C234.572 43.9834 234.471 43.9567 234.385 43.9021C234.252 43.8221 234.137 43.7136 234.05 43.5842C233.963 43.4727 233.899 43.345 233.862 43.2086C233.824 43.0722 233.814 42.9298 233.832 42.7895L234.527 39.7167L232.213 36.0376C232.133 35.9248 232.076 35.7963 232.048 35.6605C232.02 35.5248 232.02 35.3845 232.049 35.2488C232.064 35.2015 232.091 35.1585 232.126 35.1232C232.162 35.0878 232.205 35.0612 232.252 35.0452C232.299 35.0292 232.35 35.0244 232.399 35.0312C232.449 35.0379 232.496 35.056 232.537 35.084L235.61 36.538L236.834 33.9714C236.923 33.789 237.123 33.7477 237.34 33.8714V43.7078L234.674 43.9786Z" fill="#94C2FC"/>
<path d="M222.718 25.4299C222.495 25.2945 222.289 25.3357 222.2 25.5241L220.976 28.0907L217.903 26.6367C217.674 26.5307 217.485 26.5896 217.415 26.8015C217.385 26.9368 217.384 27.0768 217.411 27.2126C217.439 27.3484 217.494 27.477 217.574 27.5903L219.893 31.2694L219.198 34.3363C219.18 34.4775 219.19 34.621 219.227 34.7584C219.264 34.8958 219.329 35.0245 219.416 35.1369C219.504 35.2634 219.616 35.3714 219.746 35.4548C219.835 35.5056 219.937 35.532 220.04 35.5313L222.695 35.237L225.338 38.5864C225.416 38.6912 225.514 38.7792 225.626 38.8454C225.723 38.9117 225.841 38.9371 225.956 38.9161C226.144 38.869 226.227 38.6512 226.18 38.3686L225.503 34.507L227.857 33.5122C228.028 33.4357 228.093 33.2002 228.022 32.9235C227.951 32.6331 227.78 32.3769 227.54 32.1995L224.467 30.1039L223.289 26.1363C223.194 25.8378 222.99 25.5858 222.718 25.4299Z" fill="#94C2FC"/>
<path d="M208.084 16.9768C207.855 16.8473 207.655 16.8826 207.56 17.071L206.342 19.6376L203.263 18.1836C203.222 18.1556 203.175 18.1375 203.125 18.1307C203.076 18.124 203.025 18.1288 202.978 18.1448C202.931 18.1607 202.888 18.1874 202.852 18.2227C202.817 18.2581 202.79 18.3011 202.775 18.3484C202.746 18.4841 202.746 18.6243 202.774 18.7601C202.802 18.8959 202.859 19.0243 202.939 19.1372L205.259 22.8163L204.558 25.9009C204.541 26.0415 204.552 26.1842 204.59 26.3206C204.629 26.457 204.694 26.5845 204.782 26.6956C204.865 26.8258 204.978 26.9347 205.112 27.0134C205.197 27.0699 205.298 27.0968 205.4 27.09L208.055 26.8015L210.704 30.151C210.783 30.2542 210.881 30.342 210.992 30.41C211.04 30.4421 211.094 30.4643 211.151 30.4754C211.207 30.4865 211.265 30.4863 211.322 30.4747C211.504 30.4276 211.593 30.2157 211.546 29.9332L210.869 26.0716L213.223 25.0709C213.394 24.9943 213.459 24.7648 213.388 24.4822C213.315 24.191 213.145 23.9335 212.905 23.7523L209.833 21.6567L208.602 17.6597C208.516 17.3778 208.333 17.1358 208.084 16.9768Z" fill="#94C2FC"/>
<path d="M193.451 8.52956C193.221 8.40005 193.015 8.43537 192.927 8.62374L191.702 11.1844L188.629 9.73042C188.588 9.7024 188.541 9.68432 188.491 9.67759C188.442 9.67085 188.392 9.67566 188.344 9.69162C188.297 9.70758 188.254 9.73426 188.219 9.76958C188.183 9.80491 188.157 9.84792 188.141 9.89524C188.113 10.031 188.113 10.1711 188.141 10.3069C188.169 10.4426 188.225 10.571 188.306 10.684L190.619 14.3632L189.925 17.4301C189.884 17.7201 189.96 18.0143 190.136 18.2483C190.225 18.3762 190.339 18.4844 190.472 18.5662C190.56 18.616 190.659 18.6424 190.76 18.6427L193.415 18.3484L196.058 21.6978C196.138 21.8043 196.238 21.8943 196.353 21.9627C196.45 22.0252 196.568 22.0483 196.682 22.0275C196.865 21.9804 196.953 21.7626 196.906 21.48L196.229 17.6184L198.554 16.6236C198.731 16.5471 198.796 16.3175 198.725 16.0349C198.652 15.7439 198.479 15.4877 198.236 15.3109L195.164 13.2153L193.986 9.24772C193.903 8.95028 193.712 8.69439 193.451 8.52956Z" fill="#94C2FC"/>
<path d="M178.816 0.0765562C178.587 -0.0529484 178.381 -0.0176289 178.292 0.170741L177.068 2.73729L173.995 1.2833C173.766 1.17734 173.577 1.2421 173.507 1.45401C173.476 1.58758 173.473 1.72616 173.498 1.86094C173.523 1.99573 173.576 2.12377 173.654 2.23693L176.009 5.92192L175.314 8.98882C175.278 9.27397 175.356 9.56173 175.532 9.7894C175.621 9.91566 175.735 10.0219 175.867 10.1014C175.952 10.1579 176.054 10.1848 176.156 10.1779L178.811 9.88947L181.454 13.2389C181.533 13.3422 181.631 13.43 181.742 13.4979C181.841 13.5625 181.962 13.5857 182.078 13.5627C182.26 13.5156 182.348 13.3037 182.295 13.0211L181.624 9.15954L183.949 8.15882C184.12 8.08229 184.185 7.85272 184.12 7.57016C184.046 7.27951 183.873 7.0236 183.632 6.84611L180.559 4.75049L179.352 0.777058C179.266 0.485387 179.075 0.235843 178.816 0.0765562Z" fill="#94C2FC"/>
<path d="M397.079 71.9692C397.329 72.1333 397.513 72.3818 397.597 72.6697L398.803 76.6373L401.876 78.7329C402.117 78.9114 402.289 79.1669 402.365 79.4569C402.429 79.7454 402.365 79.9809 402.194 80.0456L399.839 81.0463L400.51 84.9079C400.563 85.1905 400.475 85.4083 400.287 85.4495C400.23 85.4621 400.172 85.4628 400.115 85.4517C400.058 85.4405 400.005 85.4177 399.957 85.3847C399.845 85.3185 399.747 85.2304 399.669 85.1257L397.067 81.8234V71.9928L397.079 71.9692Z" fill="#D4E9FF"/>
<path d="M394.4 82.0705C394.296 82.0783 394.193 82.0514 394.106 81.994C393.92 81.8779 393.77 81.7122 393.674 81.5156C393.577 81.3191 393.537 81.0995 393.558 80.8814L394.253 77.8145L391.934 74.1296C391.855 74.0168 391.8 73.8892 391.773 73.7545C391.746 73.6199 391.746 73.4811 391.775 73.3466C391.845 73.1347 392.034 73.0759 392.257 73.1759L395.336 74.6299L396.554 72.0634C396.649 71.8809 396.849 71.8456 397.067 71.9692V81.8233L394.4 82.0705Z" fill="#D4E9FF"/>
<path d="M382.444 63.522C382.215 63.3925 382.015 63.4278 381.921 63.6162L380.702 66.1827L377.623 64.7523C377.4 64.6463 377.205 64.7111 377.141 64.9171C377.111 65.0524 377.109 65.1925 377.137 65.3283C377.164 65.4641 377.22 65.5927 377.3 65.7059L379.619 69.385L378.918 72.4578C378.888 72.7416 378.968 73.0264 379.142 73.2525C379.226 73.3828 379.338 73.4917 379.472 73.5704C379.559 73.6277 379.662 73.6546 379.766 73.6469L382.415 73.3585L385.064 76.7079C385.143 76.8112 385.241 76.899 385.352 76.9669C385.45 77.0294 385.568 77.0525 385.682 77.0317C385.865 76.9846 385.953 76.7727 385.906 76.4901L385.229 72.6285L387.583 71.6278C387.754 71.5513 387.819 71.3217 387.748 71.0391C387.676 70.7474 387.506 70.4895 387.266 70.3092L384.193 68.2136L383.015 64.246C382.925 63.9404 382.721 63.6811 382.444 63.522Z" fill="#94C2FC"/>
<path d="M367.81 55.0747C367.581 54.9393 367.375 54.9805 367.287 55.1689L366.062 57.7354L362.989 56.2815C362.766 56.1755 362.571 56.2344 362.501 56.4463C362.472 56.582 362.472 56.7222 362.501 56.8579C362.529 56.9936 362.585 57.122 362.666 57.2351L364.979 60.9142L364.284 63.9811C364.25 64.2661 364.329 64.5532 364.502 64.7817C364.591 64.9096 364.705 65.0178 364.838 65.0995C364.925 65.1517 365.025 65.1764 365.126 65.1702L367.781 64.8817L370.424 68.2312C370.504 68.3344 370.601 68.4222 370.713 68.4902C370.811 68.5562 370.931 68.5815 371.048 68.5608C371.231 68.5138 371.319 68.2959 371.272 68.0134L370.595 64.1636L372.949 63.1687C373.12 63.0922 373.191 62.8568 373.12 62.5801C373.052 62.2709 372.874 61.9969 372.62 61.8089L369.547 59.7133L368.37 55.7458C368.27 55.462 368.072 55.2237 367.81 55.0747Z" fill="#94C2FC"/>
<path d="M353.194 46.6216C352.971 46.4921 352.764 46.5274 352.676 46.7158L351.428 49.2823L348.355 47.8283C348.314 47.8003 348.267 47.7822 348.217 47.7755C348.168 47.7688 348.118 47.7736 348.07 47.7895C348.023 47.8055 347.98 47.8322 347.945 47.8675C347.909 47.9028 347.883 47.9458 347.867 47.9932C347.838 48.1289 347.838 48.2691 347.866 48.4049C347.895 48.5407 347.951 48.6691 348.032 48.782L350.345 52.4611L349.662 55.5339C349.644 55.6741 349.654 55.8166 349.692 55.953C349.729 56.0894 349.793 56.217 349.88 56.3286C349.967 56.4562 350.079 56.5645 350.21 56.6464C350.297 56.703 350.4 56.7298 350.504 56.723L353.159 56.4345L355.802 59.784C355.881 59.8872 355.979 59.975 356.09 60.043C356.187 60.1072 356.306 60.1304 356.42 60.1077C356.608 60.0606 356.691 59.8487 356.644 59.5662L355.967 55.7046L358.321 54.7039C358.492 54.6273 358.563 54.3978 358.492 54.1152C358.417 53.8236 358.244 53.5663 358.004 53.3853L354.931 51.2896L353.753 47.3221C353.66 47.0274 353.461 46.7778 353.194 46.6216Z" fill="#94C2FC"/>
<path d="M338.536 38.1744C338.313 38.039 338.107 38.0803 338.018 38.2686L336.788 40.8352L333.721 39.3812C333.492 39.2752 333.303 39.34 333.233 39.546C333.202 39.6812 333.2 39.8215 333.227 39.9575C333.255 40.0935 333.311 40.2221 333.392 40.3348L335.711 44.0139L335.016 47.0926C334.998 47.2338 335.008 47.3773 335.045 47.5147C335.082 47.6521 335.147 47.7807 335.234 47.8932C335.322 48.0197 335.434 48.1277 335.564 48.211C335.651 48.2632 335.751 48.2879 335.852 48.2817L338.513 47.9932L341.156 51.3427C341.234 51.4474 341.332 51.5355 341.444 51.6017C341.541 51.6679 341.659 51.6933 341.774 51.6723C341.962 51.6253 342.045 51.4074 341.998 51.1249L341.321 47.2692L343.675 46.2685C343.846 46.1919 343.911 45.9565 343.84 45.6798C343.769 45.3894 343.598 45.1332 343.358 44.9558L340.244 42.8366L339.066 38.8514C338.978 38.5689 338.789 38.3282 338.536 38.1744Z" fill="#94C2FC"/>
</g>
<defs>
<linearGradient id="paint0_linear" x1="318.128" y1="281.696" x2="251.969" y2="281.696" gradientUnits="userSpaceOnUse">
<stop stop-color="#1D2E3E"/>
<stop offset="1" stop-color="#30415D"/>
</linearGradient>
<linearGradient id="paint1_linear" x1="318.158" y1="282.726" x2="255.524" y2="282.726" gradientUnits="userSpaceOnUse">
<stop stop-color="white"/>
<stop offset="1" stop-color="#E8EFF2"/>
</linearGradient>
<linearGradient id="paint2_linear" x1="192.55" y1="317.363" x2="192.644" y2="317.363" gradientUnits="userSpaceOnUse">
<stop stop-color="#E5E9FF"/>
<stop offset="1" stop-color="#B2B9E6"/>
</linearGradient>
<linearGradient id="paint3_linear" x1="174.479" y1="625.945" x2="174.494" y2="625.945" gradientUnits="userSpaceOnUse">
<stop stop-color="#E5E9FF"/>
<stop offset="1" stop-color="#B2B9E6"/>
</linearGradient>
<clipPath id="clip0">
<rect width="550" height="556.204" fill="white"/>
</clipPath>
</defs>
</svg>
